<svg id="Layer_1" data-name="Layer 1" xmlns="http://www.w3.org/2000/svg" width="1151" height="633" viewBox="0 0 1151 633"><defs><style>.cls-1,.cls-10,.cls-2,.cls-3,.cls-4,.cls-5,.cls-6,.cls-7,.cls-8,.cls-9{fill:none;stroke:#f0f;stroke-miterlimit:10;stroke-width:5px;}.cls-1{opacity:0.2;}.cls-2{opacity:0.29;}.cls-3{opacity:0.38;}.cls-4{opacity:0.47;}.cls-5{opacity:0.56;}.cls-6{opacity:0.64;}.cls-7{opacity:0.73;}.cls-8{opacity:0.82;}.cls-9{opacity:0.91;}</style></defs><path class="cls-1" d="M71.72,303.81c127,105,281.07,123,311.78,97.69,34-28-39-190.16-8.59-180,99,33,256.59,91,240.59,206-4.94,35.5,98,64,114,104,30.83,77.06,108.36-170.87,195-258"/><path class="cls-2" d="M69.52,298.33C101.91,328.54,144.84,361,179.94,379c18,9.23,35.1,21,52.78,26.89,24.85,8.25,50.48,7.6,71.55,9.25,34.79,2.72,64.52,4.95,78.39-.67,8.51-3.44,12.33-12.73,13.16-26.34,1.39-22.95-8.29-61.18-12.17-87.67-5.23-35.64-10.95-69.12,1.92-68,92.13,8.25,240.73,61.71,234,171.73-1.44,23.64,39,45,69.26,68.3,15.89,12.27,29.94,25.18,35.29,38.8,8.53,21.69,20.9,19.15,35.57,2,37-43.3,107.53-181.22,165.93-241.1"/><path class="cls-3" d="M67.32,292.85C95.77,323.22,143.06,365.3,176,384.36c17.37,10.05,33.2,26.66,51,33,24.77,8.7,52.72.95,74.23,3.22,32.32,3.4,64,8.78,80.6,6.87,9.94-1.14,15.23-8.21,17.08-20.87,3.25-22.27-8.55-66.88-9.52-91.85-1.29-33.16-4.92-68.94,6.86-71.22,86-16.68,225.49,32.72,227.39,137.42.43,24,37.89,46.35,63.65,70.36,13.78,12.84,26.2,26.3,31.43,39.85,8.29,21.44,20.47,20.76,34.32,5.95,35.11-37.53,118.87-168.76,173.69-226.22"/><path class="cls-4" d="M65.11,287.36c24.51,30.55,76.15,82.29,107,102.39,16.71,10.89,31.3,32.32,49.18,39,24.69,9.16,54.78-4.7,76.92-2.81,30,2.56,63.47,12.52,82.8,14.4,11.35,1.11,18.2-3.7,21-15.4,5.19-21.63-8.87-72.52-6.88-96,2.6-30.64,1.16-68.86,11.8-74.48,80.19-42.36,210.94,4,220.78,103.12,2.43,24.45,36.75,47.82,58,72.41,11.67,13.47,22.47,27.41,27.58,40.9,8,21.2,20,22.37,33.06,9.93,33.26-31.76,130.2-156.3,181.45-211.33"/><path class="cls-5" d="M62.91,281.88c20.57,30.71,76.53,92.17,105.24,113.25,16,11.77,29.4,38,47.39,45.09,24.6,9.61,56.77-7.54,79.59-8.84,27.75-1.59,63,16.2,85,21.94,12.78,3.32,21.23.8,24.93-9.94,7.24-21-9.24-78.13-4.23-100.17,6.39-28.07,7.2-68.9,16.73-77.74,74.14-68.81,197.09-24.74,214.19,68.82,4.55,24.91,35.55,49.4,52.44,74.46,9.54,14.15,18.74,28.53,23.73,42,7.79,20.94,19.62,24,31.81,13.9,31.43-26,141.52-143.84,189.2-196.44"/><path class="cls-6" d="M60.71,276.4c16.62,30.87,76.87,102.11,103.51,124.11,15.36,12.68,27.49,43.66,45.59,51.16,24.52,10.06,58.83-12.41,82.28-14.88,25.36-2.66,62.47,19.86,87.22,29.48,14.2,5.53,24.33,5.32,28.85-4.46,9.42-20.38-9.72-83.74-1.59-104.34,10.06-25.49,13.17-69,21.67-81C495.72,180.92,612.11,223,635.82,311c6.84,25.37,34.27,51.11,46.84,76.52,7.37,14.89,15,29.64,19.87,43,7.55,20.69,19.24,25.59,30.56,17.88,29.66-20.21,152.85-131.39,197-181.56"/><path class="cls-7" d="M58.51,270.92c12.68,31,77.17,112.1,101.78,135,14.66,13.62,25.59,49.33,43.8,57.23,24.43,10.52,60.9-17.14,85-20.91,23-3.6,62,23.5,89.43,37,15.66,7.72,27.5,9.86,32.77,1C423,460.55,401,390.86,412.3,371.73c13.61-23,19.08-69,26.61-84.26,60.36-122.22,171.19-82.44,201,.21,9.28,25.76,32.84,52.87,41.23,78.57,5.12,15.68,11.28,30.76,16,44.06,7.3,20.44,18.87,27.22,29.3,21.85,28-14.38,164.18-118.92,204.73-166.66"/><path class="cls-8" d="M56.31,265.43C65,296.64,133.74,387.57,156.37,411.28c13.91,14.57,23.68,55,42,63.29,24.35,11,63-21.69,87.64-26.94,20.66-4.41,61.55,27.14,91.63,44.55,17.12,9.92,30.71,14.45,36.7,6.47C428.48,479.79,403.42,403.56,418,386c17.08-20.52,24.95-69,31.53-87.51,53-148.71,158.93-111.68,194.38-34.09,11.9,26,31.27,54.65,35.63,80.62,2.77,16.47,7.54,31.87,12.16,45.11,7.07,20.19,18.54,28.89,28,25.83,26.33-8.46,175.52-106.46,212.49-151.77"/><path class="cls-9" d="M54.11,260c4.79,31.37,77.63,132.19,98.33,156.71,13.13,15.56,21.78,60.66,40.19,69.36,24.28,11.42,65.23-26,90.32-33,18.39-5.1,61.16,30.71,93.84,52.09,18.61,12.07,33.95,19.1,40.62,11.94,16.68-17.89-11.57-100.93,6.36-116.84,20.52-18.21,30.81-69.05,36.47-90.77C505.81,134.42,607.18,168.17,648,241.08c14.67,26.19,29.55,56.36,30,82.67a151.91,151.91,0,0,0,8.31,46.16c6.82,19.94,18.21,30.63,26.8,29.81,24.72-2.36,186.84-94,220.24-136.89"/><path class="cls-10" d="M51.91,254.47C52.75,286,129.68,396.73,148.51,422c12.32,16.56,19.87,66.33,38.4,75.43,24.19,11.88,67.58-30.05,93-39s120.26,94.72,140.59,77c19.25-16.74-12.23-106.85,9-121,24-16,36.68-69,41.41-94,52.59-278,217.59-115,205.59-18-5.55,44.84,17.15,78.77,30,81,23,4,198.17-81.55,228-122"/></svg>