<svg xmlns="http://www.w3.org/2000/svg" width="1794" height="1175" viewBox="0 0 1794 1175"><defs><style>.cls-1{fill:#f2f2f2;stroke-width:8px;}.cls-1,.cls-3,.cls-4{stroke:#ccc;stroke-miterlimit:10;}.cls-2{fill:#9fc2ff;}.cls-10,.cls-3{fill:red;}.cls-3,.cls-4{stroke-width:3px;}.cls-4{fill:none;}.cls-5{font-size:35px;font-family:MyriadPro-Regular, Myriad Pro;letter-spacing:0.03em;}.cls-6{letter-spacing:0.02em;}.cls-7{letter-spacing:0.01em;}.cls-8{letter-spacing:0.02em;}.cls-9{fill:#1a1a1a;}</style></defs><g id="omrids"><path class="cls-1" d="M553.5,24.5l210,444s17,31,45,18,652.57-387,690.78-462Z"/><path class="cls-1" d="M1773.5,169.5l-548,617s-130,149-246,13S838,604,838,604s-27-26,10-49,182-103,268-158S1586,93,1605,20l174.5-.5Z"/><polygon class="cls-1" points="259.5 23.5 18.5 174.5 18.5 19.5 259.5 23.5"/><path class="cls-1" d="M18.5,282.54s305-199,314-203,94.61-55,94.61-55l177.39,362s26,61-11,83-432,288-432,288-17.49,16-29.74,0S18.5,630,18.5,630Z"/><path class="cls-1" d="M18.5,1003.06l652-435.56s26-21,47,14,381.8,578,381.8,578H16.5Z"/><path class="cls-2" d="M1771.5,416.5s-355,378-385,421S1285,961.63,1299.75,1076.07l48.75,77.43h55.17l160.83-105-35-60,242-266.93Z"/><path class="cls-1" d="M1567.38,1047s67.08-39,84.78-57S1768,855.27,1768,855.27V721L1530.84,989.45Z"/><polygon class="cls-1" points="1590 1161 1778 1035 1777.5 1159.5 1590 1161"/></g><g id="små_streger" data-name="små streger"><polygon class="cls-3" points="612.5 156.5 801.5 67.5 837.5 144.5 758.5 180.5 746.5 246.5 770.5 299.5 697.5 335.5 612.5 156.5"/><polygon class="cls-4" points="612.71 156.98 585.5 95.5 705.5 38.5 733.71 99.98 612.71 156.98"/><polygon class="cls-4" points="608.5 23.5 630.5 73.5 584.5 95.5 552.96 23.5 608.5 23.5"/><path class="cls-4" d="M890.5,233.5s-50-80-93-177L853,26.1c10.18-5.57,68.11-4.52,75.53,4.4l150,219-107,63-25-41-47,27-33-52Z"/><polygon class="cls-4" points="887.5 280.5 791.5 332.5 801.5 352.5 724.5 391.5 697.5 335.5 866.5 246.5 887.5 280.5"/><path class="cls-4" d="M724.5,391.5,764.85,473a31,31,0,0,0,41.31,14.13L846.5,467.5l-56-109Z"/><path class="cls-4" d="M846.5,466l57.38-34.62a4,4,0,0,0,1.61-5.45l-57-98.45-58,31Z"/><polygon class="cls-4" points="908.5 431.19 957.5 399.5 900.5 298.5 848.5 327.5 908.5 431.19"/><polygon class="cls-4" points="957.5 399.5 1005.5 368.5 971.82 311.99 923.5 339.5 957.5 399.5"/><polygon class="cls-4" points="949.5 62.5 1007.5 34.5 1127.8 201.5 1159.5 184.5 1206.5 242.5 1115.5 303.5 949.5 62.5"/><polygon class="cls-4" points="1206.5 242.5 1289.5 190.5 1217.5 91.5 1193.5 107.5 1129.5 26.5 1037.5 26.5 1157.5 180.5 1206.5 242.5"/><polygon class="cls-4" points="1231.5 110.5 1303.5 60.5 1366.5 133.5 1289.5 190.02 1231.5 110.5"/><polygon class="cls-4" points="1273.5 25.5 1366.5 133.5 1456.5 68.5 1419.52 22.5 1273.5 25.5"/><polygon class="cls-3" points="435.5 1005.5 394.5 942.5 409.5 933.5 389.5 898.5 342.5 926.5 277.94 827.63 443.5 714.5 511.5 816.5 460.5 845.5 518.5 952.5 435.5 1005.5"/><polygon class="cls-4" points="339.5 928.5 280.5 965.5 347.5 1068.5 388.5 1039.5 361.64 998.5 391.89 980.52 368.5 944.5 387.5 932.5 372.5 909.5 339.5 928.5"/><polygon class="cls-4" points="289.5 959.5 224.5 865.5 277.94 829.56 341.5 927.5 289.5 959.5"/><polygon class="cls-4" points="289.31 959.5 233.5 998.5 166.5 901.5 223.5 863.5 289.31 959.5"/><polygon class="cls-4" points="234.5 1000.5 241.5 1009.5 195.5 1040.5 174.5 1010.5 123.38 1044.57 196.5 1159.5 110.5 1159.5 84.5 1118.5 18.5 1155.5 18.5 1002.5 166.5 901.5 234.5 1000.5"/><polygon class="cls-4" points="512.5 818.5 548.5 873.5 597.51 843.12 558.5 779.5 611.5 745.5 546.5 648.5 445.5 712.5 512.5 818.5"/><path class="cls-4" d="M611.5,745.5l60-38,60,96,88-58L703.58,565.92c-3.37-5.22-19.82-5.73-25.08-2.42l-132,85Z"/><polygon class="cls-4" points="944.5 930.5 698.5 1097.5 659.5 1034.5 793.5 944.5 746.63 871.5 588.5 976.5 551.5 918.5 819.5 745.5 944.5 930.5"/><polygon class="cls-4" points="519.5 1013.5 564.5 1083.5 607.5 1088.5 667.88 1048.04 698.5 1097.5 612.96 1155.5 462.96 1155.5 383.5 1042.5 518.5 952.5 545.5 995.5 519.5 1013.5"/><polygon class="cls-4" points="438.5 1159.5 313.5 1159.5 283.46 1115.78 367.5 1054.5 438.5 1159.5"/><path d="M732.1,144.09h6.3l7.07,25.56h.09l7.06-25.56h6.3l-9.36,32h-8.1Z"/><path d="M776.88,143.28a14.77,14.77,0,0,1,6.43,1.35,14.35,14.35,0,0,1,4.82,3.67,16.52,16.52,0,0,1,3,5.38,20.24,20.24,0,0,1,0,12.87,16.47,16.47,0,0,1-3,5.37,14.35,14.35,0,0,1-4.82,3.67,16,16,0,0,1-12.87,0,14.31,14.31,0,0,1-4.81-3.67,16.29,16.29,0,0,1-3-5.37,20.06,20.06,0,0,1,0-12.87,16.34,16.34,0,0,1,3-5.38,14.31,14.31,0,0,1,4.81-3.67A14.81,14.81,0,0,1,776.88,143.28Zm0,5.58a8.16,8.16,0,0,0-4.1,1,8.42,8.42,0,0,0-2.81,2.56,11.5,11.5,0,0,0-1.62,3.63,16.46,16.46,0,0,0,0,8.21,11.54,11.54,0,0,0,1.62,3.6,8.42,8.42,0,0,0,2.81,2.56,9.13,9.13,0,0,0,8.19,0,8.45,8.45,0,0,0,2.82-2.56,11.54,11.54,0,0,0,1.62-3.6,16.78,16.78,0,0,0,0-8.21,11.5,11.5,0,0,0-1.62-3.63,8.45,8.45,0,0,0-2.82-2.56A8.12,8.12,0,0,0,776.88,148.86Z"/><path d="M805.86,158.81l-9.14-14.72h7l5.76,9.27,5.76-9.27h7l-9.13,14.72,10.71,17.32h-6.93l-7.38-11.92-7.38,11.92h-6.93Z"/><path d="M858.1,166.19a4.85,4.85,0,0,0,.74-1.15,13.31,13.31,0,0,0,.59-1.42,14.13,14.13,0,0,0,.4-1.39,4.75,4.75,0,0,0,.16-1.08h5a9.32,9.32,0,0,1-.2,1.48,17,17,0,0,1-.65,2.34,19.4,19.4,0,0,1-1.19,2.7,10.55,10.55,0,0,1-1.83,2.48,11.88,11.88,0,0,0,1.51,1.12,2.64,2.64,0,0,0,1.37.36,6.44,6.44,0,0,0,1.35-.13v4.36a11.08,11.08,0,0,1-2.65.27,9.84,9.84,0,0,1-2.79-.36,5.76,5.76,0,0,1-2.39-1.53A17.45,17.45,0,0,1,854,176a12.44,12.44,0,0,1-4.28.7,12.17,12.17,0,0,1-4-.63,9.36,9.36,0,0,1-3.19-1.82,8.62,8.62,0,0,1-2.14-2.9,9.36,9.36,0,0,1-.79-3.92,7.91,7.91,0,0,1,.59-3,10.83,10.83,0,0,1,1.53-2.64,13.79,13.79,0,0,1,2.16-2.16,13.61,13.61,0,0,1,2.52-1.59,17.52,17.52,0,0,1-1-2.05,6.65,6.65,0,0,1-.54-2.68,7.54,7.54,0,0,1,.61-3,7,7,0,0,1,1.69-2.36,7.67,7.67,0,0,1,2.52-1.53,8.74,8.74,0,0,1,3.1-.54,8.41,8.41,0,0,1,3,.5,6.61,6.61,0,0,1,2.27,1.39,6.29,6.29,0,0,1,1.47,2.14,7,7,0,0,1,.51,2.72,7.16,7.16,0,0,1-.45,2.66,6.51,6.51,0,0,1-1.26,2,8.79,8.79,0,0,1-1.91,1.53,21.67,21.67,0,0,1-2.36,1.19Zm-9-4.05a5.72,5.72,0,0,0-2.81,1.86,4.86,4.86,0,0,0-1.15,3.18,5,5,0,0,0,.41,2.07,4,4,0,0,0,1.1,1.48,4.89,4.89,0,0,0,1.6.88,6,6,0,0,0,1.84.29,5.8,5.8,0,0,0,2.48-.52,7,7,0,0,0,1.93-1.28ZM852.75,150a2.08,2.08,0,0,0-1.83.81,2.93,2.93,0,0,0-.56,1.67,3.77,3.77,0,0,0,.43,1.89,10.77,10.77,0,0,0,1,1.48,5.65,5.65,0,0,0,2.32-1,2.65,2.65,0,0,0,1.1-2.25,2.6,2.6,0,0,0-.67-1.85A2.35,2.35,0,0,0,852.75,150Z"/><path d="M892,158.81l-9.14-14.72h7l5.76,9.27,5.76-9.27h7l-9.13,14.72,10.71,17.32H903l-7.38-11.92-7.38,11.92h-6.93Z"/><path d="M914,144.09h22.68v5.58H920V157h15.3v5.31H920v8.28h17.82v5.58H914Z"/><path d="M942.61,144.09h5.54l13.45,22.82h.09V144.09h5.49v32h-5.53l-13.46-22.81h-.09v22.81h-5.49Z"/><path d="M988.33,143.28a14.81,14.81,0,0,1,6.44,1.35,14.31,14.31,0,0,1,4.81,3.67,16.52,16.52,0,0,1,3,5.38,20.06,20.06,0,0,1,0,12.87,16.47,16.47,0,0,1-3,5.37,14.31,14.31,0,0,1-4.81,3.67,16,16,0,0,1-12.87,0,14.35,14.35,0,0,1-4.82-3.67,16.47,16.47,0,0,1-3-5.37,20.24,20.24,0,0,1,0-12.87,16.52,16.52,0,0,1,3-5.38,14.35,14.35,0,0,1,4.82-3.67A14.77,14.77,0,0,1,988.33,143.28Zm0,5.58a8.12,8.12,0,0,0-4.09,1,8.45,8.45,0,0,0-2.82,2.56A11.5,11.5,0,0,0,979.8,156a16.78,16.78,0,0,0,0,8.21,11.54,11.54,0,0,0,1.62,3.6,8.45,8.45,0,0,0,2.82,2.56,9.13,9.13,0,0,0,8.19,0,8.42,8.42,0,0,0,2.81-2.56,11.54,11.54,0,0,0,1.62-3.6,16.46,16.46,0,0,0,0-8.21,11.5,11.5,0,0,0-1.62-3.63,8.42,8.42,0,0,0-2.81-2.56A8.16,8.16,0,0,0,988.33,148.86Z"/><path d="M1009.48,144.09H1015l13.45,22.82h.09V144.09h5.49v32h-5.53l-13.46-22.81H1015v22.81h-5.49Z"/><path d="M741.24,203.67h-8.78v-5.58H756v5.58h-8.77v26.46h-6Z"/><path d="M760.18,198.09h22.68v5.58H766.21V211h15.3v5.31h-15.3v8.28H784v5.58H760.18Z"/><path d="M796.32,198.09h7l10.71,32h-6.3l-1.85-6.21H793.75l-1.84,6.21h-6.3Zm3.55,5.85h-.09l-4.41,14.67h8.91Z"/><path d="M821.52,203.67h-8.78v-5.58h23.58v5.58h-8.77v26.46h-6Z"/><path d="M840.46,198.09h22.68v5.58H846.49V211h15.3v5.31h-15.3v8.28h17.82v5.58H840.46Z"/><path d="M868.86,198.09h13.36a13.45,13.45,0,0,1,4.57.72,9.75,9.75,0,0,1,3.38,2,8.83,8.83,0,0,1,2.11,3.06,10,10,0,0,1,.74,3.9,10.85,10.85,0,0,1-.78,4.43,9.52,9.52,0,0,1-1.83,2.77,7.43,7.43,0,0,1-2.09,1.53c-.7.33-1.25.57-1.64.72l7.15,12.91h-7l-6.21-11.79h-5.76v11.79h-6Zm6,14.94h6.57a5.64,5.64,0,0,0,3.78-1.26,4.93,4.93,0,0,0,0-7.06,7,7,0,0,0-4.66-1.31h-5.67Z"/><path d="M898.11,198.09h6v12h13.77v-12h6v32h-6V215.69H904.14v14.44h-6Z"/><path d="M956.52,220.28a10.25,10.25,0,0,1-.93,4.41,9.38,9.38,0,0,1-2.63,3.37,12.14,12.14,0,0,1-4.09,2.14,19.17,19.17,0,0,1-10.55,0,12.19,12.19,0,0,1-4.08-2.14,9.38,9.38,0,0,1-2.63-3.37,10.39,10.39,0,0,1-.92-4.41V198.09h6V218.7a9.43,9.43,0,0,0,.34,2.66,4.64,4.64,0,0,0,1.14,2,5.38,5.38,0,0,0,2.12,1.28,10.18,10.18,0,0,0,3.28.45,10.32,10.32,0,0,0,3.27-.45,5.35,5.35,0,0,0,2.13-1.28,4.76,4.76,0,0,0,1.15-2,9.43,9.43,0,0,0,.34-2.66V198.09h6Z"/><path d="M965.47,220.5a10.43,10.43,0,0,0,4.21,3.69,12.75,12.75,0,0,0,5.47,1.17,14.48,14.48,0,0,0,2.29-.2,8.28,8.28,0,0,0,2.21-.68,4.59,4.59,0,0,0,1.64-1.26,3,3,0,0,0,.65-1.95,2.8,2.8,0,0,0-.42-1.58,3.65,3.65,0,0,0-1.29-1.1,10.12,10.12,0,0,0-2.07-.83c-.81-.24-1.75-.48-2.83-.72l-3.56-.81a31.39,31.39,0,0,1-3.66-1.08A11.41,11.41,0,0,1,965,213.5a7.49,7.49,0,0,1-2.11-2.52,8,8,0,0,1-.79-3.71,8.55,8.55,0,0,1,1.11-4.41,9.83,9.83,0,0,1,2.85-3.13,12.63,12.63,0,0,1,4-1.84,16.79,16.79,0,0,1,4.48-.61,17.75,17.75,0,0,1,7.5,1.55,15.68,15.68,0,0,1,5.87,4.89l-5,3.78a8.33,8.33,0,0,0-3.31-3.42,10.13,10.13,0,0,0-5.1-1.22,9.28,9.28,0,0,0-4.35.92,2.89,2.89,0,0,0-1.73,2.64,2.59,2.59,0,0,0,.52,1.64,4.13,4.13,0,0,0,1.44,1.1,10.1,10.1,0,0,0,2.12.74c.79.2,1.64.4,2.54.61l3.91.86a27.31,27.31,0,0,1,3.47,1,10.39,10.39,0,0,1,2.95,1.62,7.69,7.69,0,0,1,2.07,2.56,8.55,8.55,0,0,1,.78,3.85,9.19,9.19,0,0,1-1.26,5,10,10,0,0,1-3.26,3.26,14.1,14.1,0,0,1-4.52,1.78,23.83,23.83,0,0,1-5,.54,18.4,18.4,0,0,1-4-.43,17.53,17.53,0,0,1-3.8-1.28,17.07,17.07,0,0,1-3.4-2.11,13.19,13.19,0,0,1-2.7-2.93Z"/><rect x="1605.56" y="930.54" width="48.85" height="6" transform="translate(-98.78 1668.19) rotate(-52.82)"/><rect x="1627.28" y="908.86" width="6" height="49.2" transform="translate(-230.44 1192.11) rotate(-37.71)"/></g><g id="tekst"><path d="M304.58,724.22l2.53-1.7L318.84,740l8.37-5.63,1.42,2.12-10.89,7.33Z"/><path d="M332,714.79l.05-2.56,1.66,0v2.62a8.79,8.79,0,0,1,5.74,4c3.47,5.17,1.44,9.87-1.84,12.08a8,8,0,0,1-4.27,1.43l-.05,2.61-1.67-.15.05-2.56a8.72,8.72,0,0,1-5.83-4c-3.14-4.67-1.92-9.5,1.92-12.08A8,8,0,0,1,332,714.79Zm0,2.53a4.52,4.52,0,0,0-3,.81c-3.14,2.11-2.44,5.86-.72,8.41a7.36,7.36,0,0,0,3.41,2.82h.08Zm1.31,12.49a4.22,4.22,0,0,0,2.9-.77c2.68-1.8,2.91-5.29.78-8.45a7.56,7.56,0,0,0-3.3-2.76l-.05,0Z"/><path d="M341.17,713.16c-1-1.46-1.8-2.63-2.67-3.73l2.26-1.52,1.71,2.22.06,0a6.23,6.23,0,0,1,2.87-5.76c1.94-1.31,5.75-2.18,9,2.64l5.64,8.39-2.55,1.72L352,709c-1.52-2.27-3.64-3.59-6-2a4.38,4.38,0,0,0-1.67,4.92,4.59,4.59,0,0,0,.63,1.31l5.68,8.45-2.55,1.72Z"/><path d="M367.43,690c.62,1.06,1.33,2.23,2.48,3.94l5.49,8.16c2.16,3.23,2.85,5.63,2.31,7.77a9,9,0,0,1-4,5.12,10.94,10.94,0,0,1-5.46,2l-.67-2.38a9.56,9.56,0,0,0,4.87-1.67c2.61-1.76,3.61-4.41,1.23-7.95l-1.06-1.57-.05,0a6.07,6.07,0,0,1-2.9,5.36c-3.48,2.34-8,1.06-10.59-2.84-3.2-4.76-1.91-9.55,1.32-11.72a5.63,5.63,0,0,1,6-.51l.06,0-1.31-2.2Zm1.08,7.33a4.27,4.27,0,0,0-.92-1.07,4.44,4.44,0,0,0-5.39-.3c-2.44,1.64-2.8,4.88-.61,8.13,1.85,2.76,4.79,4.12,7.55,2.26a4.51,4.51,0,0,0,1.79-5,5.33,5.33,0,0,0-.72-1.5Z"/><path d="M389.37,695.64,388,694l-.08.06a6.33,6.33,0,0,1-2.9,5,4.83,4.83,0,0,1-7-1.15c-2.29-3.4-.52-7.29,4.94-10.91l-.2-.29c-.78-1.16-2.51-3-5.38-1.11a8.48,8.48,0,0,0-3,3.51l-1.71-1.29a10.48,10.48,0,0,1,3.78-4.36c4.3-2.89,7.32-.66,9.21,2.16l3.53,5.26a23.6,23.6,0,0,0,2.5,3.21Zm-5.2-6.92c-2.83,1.82-5.67,4.44-3.83,7.17a2.72,2.72,0,0,0,4.05.82,4.22,4.22,0,0,0,1.82-4.64,3.4,3.4,0,0,0-.4-.91Z"/><path d="M389.27,680.82c-1-1.45-1.81-2.62-2.67-3.73l2.26-1.52,1.71,2.23.06,0A6.22,6.22,0,0,1,393.5,672c1.94-1.31,5.75-2.18,9,2.64l5.64,8.4-2.55,1.72-5.45-8.11c-1.52-2.26-3.64-3.58-6.05-2a4.37,4.37,0,0,0-1.67,4.91,4.47,4.47,0,0,0,.63,1.31l5.68,8.46-2.55,1.71Z"/><path d="M415.53,657.64c.62,1.06,1.33,2.23,2.48,3.94l5.49,8.17c2.16,3.22,2.85,5.63,2.31,7.76a9,9,0,0,1-4,5.13,11,11,0,0,1-5.46,2l-.67-2.38a9.47,9.47,0,0,0,4.87-1.67c2.61-1.75,3.61-4.41,1.23-8l-1.05-1.57-.06,0a6.07,6.07,0,0,1-2.9,5.36c-3.48,2.34-8,1.06-10.59-2.83-3.2-4.77-1.91-9.56,1.32-11.73a5.63,5.63,0,0,1,6-.51l.06,0-1.31-2.2Zm1.08,7.33a4.27,4.27,0,0,0-.92-1.07,4.44,4.44,0,0,0-5.39-.3c-2.44,1.64-2.8,4.88-.61,8.13,1.85,2.76,4.79,4.12,7.55,2.26a4.49,4.49,0,0,0,1.79-5,5.08,5.08,0,0,0-.72-1.5Z"/><path d="M427.58,666.16a8,8,0,0,0,4.05-1.25c1.86-1.25,2.11-2.76,1.33-3.93s-2-1.4-4.36-.82c-3.13.8-5.26.2-6.39-1.48-1.52-2.27-.94-5.36,2.08-7.39a8.36,8.36,0,0,1,4-1.45l.61,2.29a6.52,6.52,0,0,0-3.42,1.12c-1.51,1-1.77,2.45-1.07,3.5s2,1.11,4.28.58c3.06-.71,5.13-.33,6.54,1.76,1.66,2.47.91,5.5-2.43,7.75a9.77,9.77,0,0,1-4.59,1.7Z"/><path d="M439.66,658a8.12,8.12,0,0,0,4-1.25c1.86-1.25,2.11-2.77,1.33-3.93s-2-1.4-4.36-.83c-3.13.8-5.26.21-6.39-1.48-1.52-2.26-.94-5.35,2.08-7.38a8.49,8.49,0,0,1,4-1.46L441,644a6.77,6.77,0,0,0-3.42,1.12c-1.51,1-1.77,2.46-1.06,3.5s2,1.12,4.27.59c3.06-.71,5.13-.33,6.54,1.76,1.66,2.47.91,5.5-2.43,7.75a9.64,9.64,0,0,1-4.59,1.69Z"/><path d="M444.76,632.13l2.71,4,3.66-2.46,1.31,1.95-3.66,2.46,5.1,7.58c1.17,1.75,2.33,2.4,3.75,1.44A6.32,6.32,0,0,0,459,646l1.4,1.84a7.41,7.41,0,0,1-2,1.88,4.29,4.29,0,0,1-3.48.78c-1.23-.27-2.34-1.34-3.45-3l-5.15-7.67-2.18,1.47-1.31-2,2.18-1.47-2.27-3.37Z"/><path d="M457.54,635.77c-1.11-1.66-2.1-3.06-3.07-4.31l2.24-1.5,1.94,2.7.12-.08a5.09,5.09,0,0,1,1.82-5.7,3.67,3.67,0,0,1,.79-.4l1.62,2.41a5.07,5.07,0,0,0-.93.5c-1.8,1.21-2.16,3.44-1.22,5.59a8.41,8.41,0,0,0,.68,1.27l5,7.49-2.53,1.7Z"/><path d="M479.22,625.41c2.16,3.4,5.26,3.88,7.91,2.11a10.07,10.07,0,0,0,3.29-3.39l1.67,1.48a11.93,11.93,0,0,1-3.95,4.1c-2.39,1.6-5.3,1.91-7.44.48l-.06,0a6.6,6.6,0,0,1-3.14,6.62c-2.93,2-5.71,1-7.08-1.05-2.18-3.26-.43-7.18,5.07-10.79l-.39-.58a3.74,3.74,0,0,0-5.39-.93,8.26,8.26,0,0,0-2.88,3.49l-1.75-1.27a10.83,10.83,0,0,1,3.53-4.23c2.53-1.7,4.75-1.46,6.54,0l.06,0a6.43,6.43,0,0,1,2.9-6.29c4.3-2.89,8.28.46,9.85,2.78a7.74,7.74,0,0,1,.67,1.19Zm-2.55,1.29c-2.74,1.76-5.71,4.43-3.86,7.19a2.75,2.75,0,0,0,4,.69,4.13,4.13,0,0,0,1.77-4.7,3.34,3.34,0,0,0-.53-1.11Zm8.35-7.84c-.87-1.49-3.36-3.49-5.94-1.75S477,622,478,623.6Z"/><path d="M495.29,594.49l11.42,17c.84,1.25,1.83,2.66,2.56,3.56L507,616.58l-1.76-2.36-.06,0a6.27,6.27,0,0,1-2.94,6c-3.4,2.28-7.94,1.16-10.81-3.11-3.18-4.65-2.21-9.48,1.22-11.79a5.69,5.69,0,0,1,5.69-.7l.06,0-5.65-8.39Zm5.7,14a5,5,0,0,0-.84-1,4.52,4.52,0,0,0-5.68-.48c-2.64,1.77-2.65,5.15-.56,8.26,1.92,2.85,4.89,4.26,7.65,2.41a4.63,4.63,0,0,0,1.7-5.57,5,5,0,0,0-.63-1.18Z"/><path d="M511,604.35c2.39,3.42,5.55,3.36,8.11,1.64a11.06,11.06,0,0,0,3.4-3.34l1.67,1.53a13.7,13.7,0,0,1-4.09,4c-4.33,2.91-8.83,1.8-11.68-2.44s-2.6-9.26,1.49-12c4.59-3.08,8.53.14,10.27,2.72a12.13,12.13,0,0,1,.71,1.25Zm6.27-6.87c-1.07-1.64-3.46-3.7-6.34-1.77-2.58,1.74-2.12,4.88-1.13,6.79Z"/><path d="M1324.84,782.93l-17.51-15.82,2.23-2.46,13.93,2.39a66.08,66.08,0,0,1,8.53,2l0-.08c-2.53-1.9-4.7-3.78-7.43-6.24l-7.32-6.62,1.92-2.13,17.5,15.82-2.06,2.29-13.91-2.47a75.34,75.34,0,0,1-8.8-2l0,.1c2.32,1.86,4.48,3.71,7.38,6.34l7.48,6.76Z"/><path d="M1329.07,753l9.92,4c1.09.47,2.35,1,3.29,1.52l0-.05c-.54-.92-1.27-2-1.89-3.18l-5.13-9.16,2.19-2.41,5.86,11.52c2.83,5.53,4,8.65,4,11.42a8.4,8.4,0,0,1-1,4.15l-2.44-1.17a8.25,8.25,0,0,0,.69-3,9.33,9.33,0,0,0-.81-4.22,2.15,2.15,0,0,0-.38-.67,2.76,2.76,0,0,0-.74-.39l-15.78-5.82Z"/><path d="M1352.32,752.52c-.81-.82-2-2-3.15-3L1334,735.76l2-2.26,7.9,7.13,0,0a6.29,6.29,0,0,1,1.56-6.37c2.81-3.12,7.41-3,11.2.5,4.49,4.06,4.17,8.91,1.63,11.71a6,6,0,0,1-6.16,2.07l-.07.08,2,2Zm-2.9-6.91a5.69,5.69,0,0,0,.92.65,4.74,4.74,0,0,0,5.77-1c2.16-2.38,1.51-5.57-1.38-8.18-2.52-2.27-5.85-2.92-8-.48a4.9,4.9,0,0,0-.34,6,5.59,5.59,0,0,0,.82,1Z"/><path d="M1357.58,729.31c-1.48-1.34-2.77-2.46-4-3.44l1.81-2,2.53,2.15.1-.1a5.08,5.08,0,0,1,.39-6,3.16,3.16,0,0,1,.66-.58l2.16,2a4.92,4.92,0,0,0-.78.71c-1.46,1.61-1.27,3.86.16,5.72a9.16,9.16,0,0,0,1,1.06l6.7,6.06-2,2.26Z"/><path d="M1378,711.23c4.65,4.2,3.77,9.25,1,12.29-3.07,3.4-7.94,3.77-11.91.18-4.21-3.8-4.19-8.79-1-12.27S1374.19,707.75,1378,711.23Zm-8.88,10.09c2.75,2.48,6.26,2.78,8.28.55s1.4-5.68-1.43-8.23c-2.13-1.93-5.79-3.31-8.24-.6S1366.76,719.16,1369.15,721.32Z"/><path d="M1384.71,691.41c.86.87,1.83,1.84,3.36,3.23l7.3,6.59c2.88,2.61,4.13,4.77,4.12,7a8.94,8.94,0,0,1-2.63,5.93,11,11,0,0,1-4.81,3.25l-1.23-2.15a9.55,9.55,0,0,0,4.32-2.8c2.11-2.33,2.44-5.15-.73-8l-1.4-1.27,0,.05a6,6,0,0,1-1.5,5.9c-2.82,3.12-7.49,3-11-.19-4.26-3.84-4.16-8.81-1.56-11.69a5.66,5.66,0,0,1,5.73-2l0,0-1.81-1.82Zm2.83,6.85a4.51,4.51,0,0,0-6.46.2c-2,2.18-1.54,5.41,1.37,8,2.47,2.22,5.65,2.83,7.88.36a4.51,4.51,0,0,0,.52-5.28,5.28,5.28,0,0,0-1.06-1.28Z"/><path d="M1407.37,691.61l-1.75-1.25-.07.07A6.33,6.33,0,0,1,1404,696a4.83,4.83,0,0,1-7.08.58c-3-2.75-2.26-6.95,2.15-11.78l-.26-.24c-1-.94-3.17-2.34-5.49.23a8.36,8.36,0,0,0-2,4.12l-2-.84a10.58,10.58,0,0,1,2.62-5.14c3.47-3.85,6.94-2.41,9.46-.13l4.7,4.24a23.5,23.5,0,0,0,3.2,2.52Zm-6.72-5.46c-2.3,2.44-4.42,5.67-2,7.88a2.72,2.72,0,0,0,4.13-.19,4.21,4.21,0,0,0,.64-4.94,3.1,3.1,0,0,0-.61-.78Z"/><path d="M1404.23,658l15.19,13.73c1.12,1,2.42,2.13,3.35,2.83l-1.86,2-2.27-1.87-.05.06a6.25,6.25,0,0,1-1.41,6.51c-2.74,3-7.43,3-11.24-.4-4.21-3.75-4.43-8.67-1.66-11.73a5.66,5.66,0,0,1,5.35-2.06l0,0-7.5-6.78Zm8.92,12.21a5.75,5.75,0,0,0-1.05-.76,4.53,4.53,0,0,0-5.63.9c-2.14,2.37-1.33,5.65,1.45,8.16,2.55,2.3,5.78,3,8,.49a4.64,4.64,0,0,0,.3-5.82,4.87,4.87,0,0,0-.9-1Z"/><path d="M1421.85,663.79c3.13,2.74,6.19,1.92,8.26-.37a11.22,11.22,0,0,0,2.49-4.07l2,1.09a13.73,13.73,0,0,1-3,4.89c-3.5,3.87-8.13,3.88-11.92.45s-4.76-8.36-1.45-12c3.7-4.1,8.3-1.93,10.61.16a10.8,10.8,0,0,1,1,1Zm4.42-8.18c-1.44-1.34-4.26-2.76-6.58-.19-2.09,2.31-.88,5.25.54,6.86Z"/><path d="M944.18,800.43l7.59,10.2-2,1.52L944,804.4l-6.29,4.68,5.33,7.16-2,1.51-5.33-7.16L927.07,817l-1.81-2.45Z"/><path d="M944.59,821c1.61-1.19,3-2.24,4.16-3.27l1.61,2.17-2.6,2.07.08.11a5.09,5.09,0,0,1,5.78,1.55,3.1,3.1,0,0,1,.43.76l-2.33,1.73a4.75,4.75,0,0,0-.54-.9c-1.3-1.74-3.53-2-5.64-1a8.35,8.35,0,0,0-1.23.74l-7.25,5.39-1.82-2.44Z"/><path d="M949.65,834.06c-3.3,2.54-3.08,5.7-1.25,8.17a11.17,11.17,0,0,0,3.51,3.24l-1.46,1.74a13.84,13.84,0,0,1-4.21-3.9c-3.11-4.18-2.22-8.73,1.88-11.78s9.13-3,12.08.92c3.3,4.44.27,8.52-2.23,10.38a10.76,10.76,0,0,1-1.21.77Zm7.16,5.92c1.6-1.14,3.54-3.63,1.47-6.41-1.86-2.5-5-1.88-6.83-.8Z"/><path d="M981.84,848.94l-16.43,12.22c-1.21.9-2.56,2-3.42,2.72l-1.66-2.22,2.28-1.86,0-.06a6.27,6.27,0,0,1-6.12-2.65c-2.44-3.28-1.54-7.88,2.59-11,4.5-3.39,9.37-2.65,11.83.66a5.65,5.65,0,0,1,1,5.65l0,0,8.11-6Zm-13.72,6.36a5.7,5.7,0,0,0,1-.88,4.53,4.53,0,0,0,.21-5.7c-1.9-2.56-5.28-2.4-8.28-.17-2.75,2.05-4,5.09-2,7.76a4.62,4.62,0,0,0,5.64,1.43,5.51,5.51,0,0,0,1.15-.68Z"/><path d="M972.74,865.08c-3.3,2.55-3.09,5.71-1.25,8.18a11.26,11.26,0,0,0,3.5,3.24l-1.45,1.74a13.84,13.84,0,0,1-4.21-3.9c-3.11-4.18-2.22-8.73,1.88-11.78s9.13-3,12.07.92c3.3,4.44.28,8.52-2.22,10.38a10.69,10.69,0,0,1-1.22.77ZM979.9,871c1.59-1.14,3.53-3.63,1.47-6.41-1.86-2.5-5-1.88-6.84-.8Z"/><path d="M985.61,876.1c1.6-1.19,2.95-2.24,4.15-3.26l1.61,2.16-2.6,2.07.08.11a5.09,5.09,0,0,1,5.78,1.55,3.3,3.3,0,0,1,.43.76l-2.33,1.74a4.5,4.5,0,0,0-.54-.91c-1.29-1.74-3.53-2-5.64-1a8.35,8.35,0,0,0-1.23.74l-7.25,5.39-1.82-2.44Z"/><path d="M983.59,892.92l13.59-10.11,1.84,2.47-13.59,10.11Zm19.46-10.2a1.91,1.91,0,0,1-2.28-3.06,1.87,1.87,0,0,1,2.69.39A1.83,1.83,0,0,1,1003.05,882.72Z"/><path d="M998.07,897l0,.06c.73,0,1.67,0,2.44,0l7.66.5,2.22,3-9.5-1.09-3.55,11.93-2.24-3,3-9.54-2.35-.22-5.11,3.8-1.82-2.44,19.94-14.83,1.82,2.44Z"/><path d="M1001.39,911.56a8,8,0,0,0,1.44,4c1.33,1.8,2.86,2,4,1.14s1.31-2.06.62-4.39c-.95-3.09-.45-5.24,1.18-6.46,2.19-1.63,5.3-1.19,7.47,1.73a8.41,8.41,0,0,1,1.65,4l-2.26.71a6.58,6.58,0,0,0-1.28-3.36c-1.09-1.46-2.54-1.65-3.55-.9s-1,2-.38,4.3c.86,3,.58,5.11-1.45,6.62-2.38,1.77-5.45,1.17-7.85-2a9.68,9.68,0,0,1-1.92-4.51Z"/><path d="M1027.74,910.63l1.84,2.47-8.48,6.31,0,.06a5.68,5.68,0,0,1,3.06.47,6.38,6.38,0,0,1,2.58,2c1.36,1.82,2.41,5.58-2.28,9.07l-8.09,6-1.84-2.47,7.81-5.81c2.19-1.63,3.44-3.82,1.7-6.15a4.44,4.44,0,0,0-4.94-1.48,3.83,3.83,0,0,0-1.3.71l-8.2,6.1-1.84-2.47Z"/><path d="M1035.87,948.77c-5,3.74-9.81,1.89-12.25-1.4-2.74-3.68-2.15-8.52,2.15-11.72,4.55-3.38,9.43-2.39,12.23,1.37S1040,945.68,1035.87,948.77Zm-8.16-10.68c-3,2.21-4,5.6-2.15,8s5.29,2.48,8.35.2c2.3-1.71,4.37-5,2.19-7.95S1030.29,936.17,1027.71,938.09Z"/><path d="M1051.64,942.75l1.84,2.47-19.94,14.84-1.84-2.47Z"/><path d="M1047,957.4c1.41-1,2.54-1.93,3.6-2.85l1.61,2.16-2.11,1.75.06.08a5.84,5.84,0,0,1,5.68,2.41,5,5,0,0,1,.14,5.87l0,.06a7,7,0,0,1,2.9.2,5.77,5.77,0,0,1,3.19,2.29c1.33,1.8,2.14,5.35-2.58,8.86l-8,5.95-1.8-2.41,7.69-5.73c2.62-1.94,3.48-4.07,2-6.06a4,4,0,0,0-4.42-1.25,5.29,5.29,0,0,0-1.39.72l-8.39,6.25-1.8-2.41,8.14-6.06c2.17-1.61,3-3.74,1.63-5.62a4.59,4.59,0,0,0-6.1-.52l-8.2,6.1-1.8-2.41Z"/><path d="M1057.17,986.54a8,8,0,0,0,1.44,4c1.34,1.8,2.86,2,4,1.13s1.31-2.06.62-4.38c-.94-3.09-.45-5.25,1.18-6.46,2.19-1.63,5.3-1.2,7.47,1.72a8.49,8.49,0,0,1,1.65,4l-2.26.72a6.58,6.58,0,0,0-1.28-3.36c-1.09-1.47-2.54-1.65-3.55-.9s-1,2-.38,4.3c.86,3,.58,5.11-1.45,6.61-2.38,1.78-5.45,1.18-7.85-2a9.55,9.55,0,0,1-1.91-4.51Z"/><path d="M1087.42,993l1.82,2.45-9.13,6.79.06.08c1.11,0,2.16,0,3.13,0l11.41.5,2.26,3-13.13-.88-5.4,15.49-2.16-2.89,4.66-13.15-3.41-.25-7.22,5.37-1.82-2.44Z"/><path d="M1086.1,1030.71l1.57-1.47-.06-.09a6.3,6.3,0,0,1-5.12-2.65,4.84,4.84,0,0,1,.81-7.06c3.29-2.44,7.26-.86,11.14,4.41l.28-.21c1.12-.83,2.92-2.64.85-5.43a8.42,8.42,0,0,0-3.65-2.78l1.21-1.78a10.5,10.5,0,0,1,4.53,3.57c3.1,4.16,1,7.28-1.71,9.31l-5.08,3.78a23.79,23.79,0,0,0-3.1,2.65Zm6.67-5.53c-2-2.73-4.71-5.44-7.35-3.48a2.73,2.73,0,0,0-.62,4.09,4.2,4.2,0,0,0,4.72,1.59,3.08,3.08,0,0,0,.89-.44Z"/><path d="M1100.9,1029.9c1.41-1,2.54-1.92,3.6-2.85l1.63,2.2-2.14,1.81,0,0a6.25,6.25,0,0,1,5.9,2.6c1.4,1.88,2.45,5.63-2.21,9.1l-8.12,6-1.84-2.47,7.84-5.83c2.19-1.63,3.41-3.8,1.67-6.13a4.38,4.38,0,0,0-5-1.44,4.62,4.62,0,0,0-1.28.69l-8.17,6.08-1.84-2.47Z"/><path d="M1108.6,1061l1.57-1.47-.06-.08a6.35,6.35,0,0,1-5.12-2.65,4.85,4.85,0,0,1,.81-7.07c3.29-2.44,7.26-.86,11.14,4.42l.28-.21c1.12-.84,2.92-2.65.85-5.43a8.44,8.44,0,0,0-3.65-2.79l1.21-1.77a10.47,10.47,0,0,1,4.53,3.56c3.1,4.16,1,7.28-1.71,9.31l-5.08,3.78a24.59,24.59,0,0,0-3.1,2.65Zm6.67-5.52c-2-2.74-4.71-5.45-7.35-3.48a2.72,2.72,0,0,0-.62,4.08,4.22,4.22,0,0,0,4.72,1.6,3.38,3.38,0,0,0,.89-.45Z"/><path d="M1133.43,1052.69l1.84,2.47L1115.33,1070l-1.84-2.47Z"/><path d="M1569.59,1125.46a10.74,10.74,0,0,0,5.39-1.76c2.59-1.74,3.18-4.12,1.85-6.1-1.23-1.83-3-2.17-6.3-1.41-4,1-7,.69-8.91-2.07-2-3-1-7,2.76-9.58a10.79,10.79,0,0,1,5-2l.69,2.53a9.39,9.39,0,0,0-4.35,1.57c-2.67,1.8-2.61,4.08-1.71,5.42,1.23,1.83,3,1.93,6.43,1.16,4.17-1,6.93-.49,8.86,2.39s1.55,7.14-3.07,10.24a12.09,12.09,0,0,1-5.83,2.11Z"/><path d="M1577.65,1098.24l2.71,4,3.66-2.46,1.31,1.94-3.66,2.46,5.1,7.59c1.17,1.74,2.33,2.4,3.75,1.44a6.93,6.93,0,0,0,1.37-1.17l1.4,1.84a7.56,7.56,0,0,1-2,1.87,4.25,4.25,0,0,1-3.48.78c-1.24-.27-2.34-1.34-3.45-3l-5.16-7.67-2.17,1.47-1.31-1.95,2.18-1.46-2.27-3.37Z"/><path d="M1604.68,1096c3.49,5.2,1.41,9.89-2,12.17-3.81,2.56-8.62,1.75-11.61-2.7-3.16-4.71-1.94-9.53,2-12.15S1601.79,1091.67,1604.68,1096Zm-11.06,7.65c2.07,3.07,5.4,4.21,7.9,2.53s2.73-5.17.6-8.33c-1.6-2.39-4.82-4.61-7.84-2.58S1591.82,1100.94,1593.62,1103.62Z"/><path d="M1606.78,1090.89c-1.11-1.66-2.1-3.06-3.06-4.31l2.23-1.51,2,2.71.11-.08a5.09,5.09,0,0,1,1.82-5.7,3.67,3.67,0,0,1,.79-.4l1.62,2.41a5.07,5.07,0,0,0-.93.5c-1.8,1.21-2.16,3.44-1.22,5.59a8.92,8.92,0,0,0,.68,1.27l5,7.49-2.52,1.7Z"/><path d="M1616.59,1083.45c-1-1.45-1.81-2.62-2.68-3.73l2.24-1.5,1.64,2.19.08-.06a5.85,5.85,0,0,1,2.68-5.55,5,5,0,0,1,5.88.14l.06,0a6.84,6.84,0,0,1,.33-2.89,5.82,5.82,0,0,1,2.45-3.07c1.86-1.25,5.44-1.89,8.72,3l5.56,8.28-2.5,1.68-5.35-8c-1.81-2.7-3.89-3.66-6-2.28a4,4,0,0,0-1.46,4.36,5.09,5.09,0,0,0,.66,1.41l5.84,8.69-2.5,1.68-5.66-8.43c-1.51-2.23-3.59-3.2-5.53-1.89a4.22,4.22,0,0,0-1.45,4.69,4.11,4.11,0,0,0,.64,1.38l5.7,8.49-2.5,1.68Z"/><path d="M1648.17,1077.11c-.59-1-1.49-2.46-2.33-3.71l-11.42-17,2.53-1.69,5.93,8.83.06,0a6.31,6.31,0,0,1,3.06-5.81c3.48-2.34,7.91-1.1,10.75,3.19,3.38,5,1.89,9.65-1.25,11.76a6,6,0,0,1-6.48.52l-.09.06,1.45,2.4Zm-1.15-7.42a6.94,6.94,0,0,0,.74.86,4.76,4.76,0,0,0,5.85.41c2.67-1.8,2.81-5,.64-8.27-1.9-2.82-5-4.26-7.7-2.42a4.9,4.9,0,0,0-1.78,5.75,6,6,0,0,0,.56,1.15Z"/><path d="M1658.89,1055.85c-1.11-1.65-2.1-3.06-3.06-4.3l2.23-1.51,1.94,2.7.12-.07a5.09,5.09,0,0,1,1.82-5.7,3.27,3.27,0,0,1,.79-.4l1.62,2.41a4.52,4.52,0,0,0-.93.5c-1.8,1.21-2.16,3.43-1.22,5.58a8,8,0,0,0,.68,1.27l5,7.5-2.53,1.7Z"/><path d="M1683.1,1043.25c3.5,5.2,1.42,9.88-2,12.17-3.81,2.56-8.61,1.74-11.6-2.7-3.17-4.71-1.94-9.54,2-12.16S1680.21,1039,1683.1,1043.25Zm-11.06,7.64c2.07,3.08,5.41,4.21,7.91,2.53s2.72-5.16.6-8.33c-1.61-2.38-4.83-4.6-7.85-2.57S1670.25,1048.22,1672,1050.89Z"/><path d="M1688.72,1040.31c2.38,3.42,5.55,3.36,8.1,1.64a11.23,11.23,0,0,0,3.41-3.34l1.66,1.54a13.57,13.57,0,0,1-4.09,4c-4.33,2.91-8.83,1.8-11.68-2.44s-2.6-9.26,1.5-12c4.59-3.09,8.52.13,10.26,2.71a13.92,13.92,0,0,1,.72,1.25Zm6.26-6.87c-1.06-1.64-3.46-3.7-6.33-1.77-2.59,1.74-2.12,4.89-1.13,6.79Z"/><path d="M1700,1027.41c-1-1.46-1.81-2.63-2.68-3.73l2.27-1.52,1.71,2.22.06,0a6.19,6.19,0,0,1,2.87-5.76c1.94-1.31,5.74-2.18,9,2.64l5.64,8.4-2.56,1.71-5.44-8.1c-1.53-2.27-3.64-3.59-6-2a4.39,4.39,0,0,0-1.67,4.92,4.34,4.34,0,0,0,.63,1.31l5.68,8.45-2.56,1.72Z"/><text class="cls-5" transform="translate(1113.13 364.57) rotate(-33.91)">M<tspan class="cls-6" x="29.05" y="0">agst</tspan><tspan class="cls-7" x="93.73" y="0">r</tspan><tspan class="cls-8" x="105.7" y="0">æde</tspan></text><path d="M443.84,786.39h12a20.29,20.29,0,0,1,7.61,1.3,13.92,13.92,0,0,1,5.23,3.58,14.21,14.21,0,0,1,3,5.42,23.17,23.17,0,0,1,1,6.79q0,8.4-4,12.75T457,820.57h-13.2Zm6.43,28.23h5.86a15.9,15.9,0,0,0,4.2-.51,6.56,6.56,0,0,0,3.07-1.75,8.13,8.13,0,0,0,1.87-3.41,19.45,19.45,0,0,0,.65-5.47,16.74,16.74,0,0,0-.58-4.56,9.54,9.54,0,0,0-1.77-3.53,7.93,7.93,0,0,0-3.08-2.25,11.48,11.48,0,0,0-4.51-.79h-5.71Z"/><path d="M493.71,785.53a15.74,15.74,0,0,1,6.86,1.44,15.31,15.31,0,0,1,5.14,3.91,17.49,17.49,0,0,1,3.24,5.74,21.42,21.42,0,0,1,0,13.73,17.54,17.54,0,0,1-3.24,5.73,15.31,15.31,0,0,1-5.14,3.91,17.06,17.06,0,0,1-13.72,0,15.31,15.31,0,0,1-5.14-3.91,17.54,17.54,0,0,1-3.24-5.73,21.42,21.42,0,0,1,0-13.73,17.49,17.49,0,0,1,3.24-5.74,15.31,15.31,0,0,1,5.14-3.91A15.74,15.74,0,0,1,493.71,785.53Zm0,6a8.83,8.83,0,0,0-4.37,1,9,9,0,0,0-3,2.74,12.09,12.09,0,0,0-1.73,3.86,17.76,17.76,0,0,0,0,8.77,12,12,0,0,0,1.73,3.83,8.87,8.87,0,0,0,3,2.74,9.79,9.79,0,0,0,8.74,0,9.06,9.06,0,0,0,3-2.74,12,12,0,0,0,1.73-3.83,17.76,17.76,0,0,0,0-8.77,12.09,12.09,0,0,0-1.73-3.86,9.16,9.16,0,0,0-3-2.74A8.83,8.83,0,0,0,493.71,791.48Z"/><path d="M513.34,786.39h6.48l4.71,26.69h.19l5.18-26.69h6.43l5,26.4h.1l4.56-26.4h6.48l-7,34.18H538L533,796h-.09l-5,24.58h-7.49Z"/><path d="M557.26,786.39h5.91l14.35,24.34h.09V786.39h5.86v34.18h-5.9l-14.36-24.34h-.09v24.34h-5.86Z"/><path d="M618.46,810.06a11.07,11.07,0,0,1-1,4.7,10.18,10.18,0,0,1-2.81,3.6,13,13,0,0,1-4.37,2.28,20.46,20.46,0,0,1-11.26,0,13.1,13.1,0,0,1-4.34-2.28,10.06,10.06,0,0,1-2.81-3.6,11.07,11.07,0,0,1-1-4.7V786.39h6.43v22a10.23,10.23,0,0,0,.36,2.83,5.12,5.12,0,0,0,1.22,2.14,5.59,5.59,0,0,0,2.26,1.36,13,13,0,0,0,7,0,5.6,5.6,0,0,0,2.28-1.36,5.12,5.12,0,0,0,1.22-2.14,10.23,10.23,0,0,0,.36-2.83v-22h6.43Z"/><path d="M625.9,786.39h5.9l14.36,24.34h.09V786.39h5.86v34.18h-5.9l-14.36-24.34h-.09v24.34H625.9Z"/><path d="M659.55,786.39h12a20.29,20.29,0,0,1,7.61,1.3,13.92,13.92,0,0,1,5.23,3.58,14.21,14.21,0,0,1,3,5.42,23.17,23.17,0,0,1,1,6.79q0,8.4-4,12.75t-11.64,4.34h-13.2ZM666,814.62h5.86a15.9,15.9,0,0,0,4.2-.51,6.56,6.56,0,0,0,3.07-1.75A8.13,8.13,0,0,0,681,809a19.45,19.45,0,0,0,.65-5.47,16.74,16.74,0,0,0-.58-4.56,9.54,9.54,0,0,0-1.77-3.53,8,8,0,0,0-3.07-2.25,11.57,11.57,0,0,0-4.52-.79H666Z"/><path d="M694.3,786.39h24.19v6H700.73v7.77h16.32v5.67H700.73v8.83h19v6H694.3Z"/><path d="M724.59,786.39h14.25a14.44,14.44,0,0,1,4.88.77,10.38,10.38,0,0,1,3.6,2.14,9.43,9.43,0,0,1,2.25,3.26,10.66,10.66,0,0,1,.8,4.15,11.47,11.47,0,0,1-.85,4.73,9.81,9.81,0,0,1-1.94,2.95,8.22,8.22,0,0,1-2.23,1.64c-.75.35-1.34.6-1.75.76l7.63,13.78h-7.44L737.17,808H731v12.58h-6.43ZM731,802.33h7a6,6,0,0,0,4-1.34,5.26,5.26,0,0,0,0-7.54,7.47,7.47,0,0,0-5-1.39H731Z"/><path d="M1575.59,869.36h12.06a10.5,10.5,0,0,1,3,.4A7,7,0,0,1,1593,871a5.64,5.64,0,0,1,1.62,2,6.36,6.36,0,0,1,.59,2.79,5.18,5.18,0,0,1-1.12,3.46,5.33,5.33,0,0,1-3.24,1.73V881a6.22,6.22,0,0,1,2.36.72,5.92,5.92,0,0,1,1.73,1.44,6.11,6.11,0,0,1,1.06,1.94,7.05,7.05,0,0,1,.36,2.24,8.29,8.29,0,0,1-.79,3.9,6,6,0,0,1-2.16,2.34,8.55,8.55,0,0,1-3.17,1.14,24.17,24.17,0,0,1-3.78.28h-10.91Zm4.83,10.3h5.72a7.63,7.63,0,0,0,1.53-.16,3.72,3.72,0,0,0,1.3-.56,3.12,3.12,0,0,0,.9-1,3.23,3.23,0,0,0,.34-1.55,3,3,0,0,0-1-2.34,4.63,4.63,0,0,0-3.1-.86h-5.72Zm0,11.09h6.26a6.47,6.47,0,0,0,3.44-.78,3,3,0,0,0,1.24-2.79,3.45,3.45,0,0,0-1.26-3,5.93,5.93,0,0,0-3.46-.88h-6.22Z"/><path d="M1621,887.11a8.29,8.29,0,0,1-.74,3.53,7.57,7.57,0,0,1-2.11,2.7,9.77,9.77,0,0,1-3.27,1.71,15.39,15.39,0,0,1-8.44,0,9.82,9.82,0,0,1-3.26-1.71,7.69,7.69,0,0,1-2.11-2.7,8.29,8.29,0,0,1-.74-3.53V869.36h4.83v16.49a7.63,7.63,0,0,0,.27,2.12,3.7,3.7,0,0,0,.92,1.61,4.23,4.23,0,0,0,1.69,1,9.71,9.71,0,0,0,5.24,0,4.38,4.38,0,0,0,1.71-1,3.78,3.78,0,0,0,.91-1.61,7.63,7.63,0,0,0,.27-2.12V869.36H1621Z"/><path d="M1628.15,887.29a8.32,8.32,0,0,0,3.37,3,10.08,10.08,0,0,0,4.37.94,12.16,12.16,0,0,0,1.84-.16,6.71,6.71,0,0,0,1.76-.54,3.94,3.94,0,0,0,1.32-1,2.41,2.41,0,0,0,.52-1.57,2.28,2.28,0,0,0-.34-1.26,2.94,2.94,0,0,0-1-.88,9.08,9.08,0,0,0-1.66-.67c-.64-.19-1.4-.38-2.26-.57l-2.85-.65a26.5,26.5,0,0,1-2.93-.86,9.25,9.25,0,0,1-2.45-1.32,6,6,0,0,1-1.69-2,6.39,6.39,0,0,1-.63-3,6.85,6.85,0,0,1,.88-3.53,7.84,7.84,0,0,1,2.29-2.5,10,10,0,0,1,3.18-1.48,13.73,13.73,0,0,1,3.58-.49,14.1,14.1,0,0,1,6,1.25,12.46,12.46,0,0,1,4.7,3.9l-4,3a6.66,6.66,0,0,0-2.65-2.74,8.1,8.1,0,0,0-4.08-1,7.22,7.22,0,0,0-3.47.74,2.28,2.28,0,0,0-1.39,2.1,2.1,2.1,0,0,0,.41,1.32,3.4,3.4,0,0,0,1.15.88,8.25,8.25,0,0,0,1.7.59l2,.49,3.13.68a23.46,23.46,0,0,1,2.77.81,8.53,8.53,0,0,1,2.36,1.3,6,6,0,0,1,1.66,2,6.76,6.76,0,0,1,.63,3.08,7.37,7.37,0,0,1-1,4,7.94,7.94,0,0,1-2.61,2.61,11.36,11.36,0,0,1-3.62,1.42,18.81,18.81,0,0,1-4,.43,14.79,14.79,0,0,1-3.17-.34,14,14,0,0,1-3-1,13.43,13.43,0,0,1-2.72-1.69,10.44,10.44,0,0,1-2.16-2.34Z"/><path d="M1660.55,879.55a14,14,0,0,1,.49-3.83,8,8,0,0,1,1.51-3,7,7,0,0,1,2.61-2,9.55,9.55,0,0,1,3.82-.7,8.92,8.92,0,0,1,3.16.54,7.06,7.06,0,0,1,2.47,1.53,6.74,6.74,0,0,1,1.58,2.4,8.23,8.23,0,0,1,.56,3.13,9.12,9.12,0,0,1-1,4.3,15.07,15.07,0,0,1-2.5,3.47,28.57,28.57,0,0,1-3.31,3q-1.8,1.4-3.42,2.76h10.58V895h-16.56v-3.81q.87-.54,2-1.35c.78-.54,1.58-1.15,2.41-1.84s1.64-1.42,2.45-2.21a22.46,22.46,0,0,0,2.16-2.47,13.46,13.46,0,0,0,1.53-2.61,6.64,6.64,0,0,0,.57-2.63,7.23,7.23,0,0,0-.14-1.4,3.38,3.38,0,0,0-.51-1.21,2.48,2.48,0,0,0-1-.82,3.75,3.75,0,0,0-1.62-.31,3.19,3.19,0,0,0-1.68.4,3,3,0,0,0-1.08,1.11,5,5,0,0,0-.57,1.75,14.32,14.32,0,0,0-.17,2.28Z"/><path d="M1688.09,869.36h5.62l8.57,25.63h-5l-1.48-5H1686l-1.48,5h-5Zm2.85,4.68h-.08l-3.52,11.74h7.12Z"/><path d="M67.7,180l2.59-1.61,6,9.67.09-.06c.06-1.1.15-2.15.25-3.12l1.46-11.32,3.22-2-2,13,15,6.7-3.06,1.9-12.71-5.76L78,190.75l4.74,7.64L80.13,200Z"/><path d="M105.25,174.29c3.31,5.32,1.06,9.93-2.42,12.09-3.9,2.41-8.68,1.42-11.5-3.13-3-4.82-1.59-9.6,2.4-12.07S102.52,169.88,105.25,174.29Zm-11.33,7.23c2,3.15,5.25,4.41,7.81,2.82s2.91-5.06.9-8.3c-1.51-2.44-4.65-4.78-7.74-2.86S92.22,178.78,93.92,181.52Z"/><path d="M107.17,168.69c-.92-1.49-1.7-2.69-2.53-3.82l2.29-1.42,1.56,2.24.09-.05a5.82,5.82,0,0,1,2.88-5.45,5,5,0,0,1,5.86.35l.06,0a7,7,0,0,1,.45-2.87,5.74,5.74,0,0,1,2.55-3c1.91-1.18,5.51-1.68,8.61,3.31l5.25,8.48L131.68,168l-5.05-8.15c-1.72-2.77-3.76-3.81-5.87-2.5a4,4,0,0,0-1.62,4.3,5.21,5.21,0,0,0,.6,1.44l5.52,8.89-2.56,1.59L117.35,165c-1.42-2.29-3.46-3.33-5.46-2.09a4.58,4.58,0,0,0-1,6l5.38,8.68-2.55,1.59Z"/><path d="M133.08,153.74c-1.15-1.84-2.13-3.29-3-4.63l2.35-1.45,1.65,2.39.06,0a6.64,6.64,0,0,1,3.38-6c3.48-2.16,7.93-.84,10.64,3.53,3.21,5.18,1.64,9.69-1.75,11.8a5.91,5.91,0,0,1-5.83.48l-.06,0,4.85,7.82-2.59,1.61Zm5,2.23a6.34,6.34,0,0,0,.79,1,4.75,4.75,0,0,0,5.82.63c2.77-1.72,3-5,.93-8.28-1.79-2.88-4.84-4.41-7.61-2.69a4.9,4.9,0,0,0-1.94,5.69,4.8,4.8,0,0,0,.48,1.18Z"/><path d="M164.58,147.63l-1.33-1.69-.09.06a6.31,6.31,0,0,1-3.08,4.87,4.82,4.82,0,0,1-7-1.4c-2.16-3.48-.25-7.3,5.33-10.72l-.18-.3c-.74-1.19-2.4-3.13-5.34-1.31a8.47,8.47,0,0,0-3.08,3.4l-1.67-1.36a10.52,10.52,0,0,1,3.94-4.21c4.4-2.73,7.33-.39,9.12,2.5l3.34,5.38a24.69,24.69,0,0,0,2.38,3.31Zm-4.94-7.11c-2.89,1.71-5.82,4.23-4.09,7a2.73,2.73,0,0,0,4,1,4.21,4.21,0,0,0,2-4.56,3.16,3.16,0,0,0-.36-.93Z"/><path d="M175,121.22c.58,1.08,1.24,2.28,2.33,4l5.18,8.36c2.05,3.31,2.65,5.73,2,7.85a9,9,0,0,1-4.17,5,10.84,10.84,0,0,1-5.52,1.78l-.59-2.4a9.55,9.55,0,0,0,4.93-1.48c2.68-1.67,3.77-4.28,1.52-7.91l-1-1.61-.06,0a6.06,6.06,0,0,1-3.09,5.25c-3.57,2.21-8,.77-10.48-3.22-3-4.88-1.56-9.62,1.74-11.67a5.61,5.61,0,0,1,6-.28l.06,0-1.22-2.24Zm.81,7.36a4.24,4.24,0,0,0-.88-1.09,4.45,4.45,0,0,0-5.38-.5c-2.5,1.55-3,4.77-.91,8.1,1.76,2.83,4.64,4.29,7.47,2.54a4.51,4.51,0,0,0,2-4.93,5.37,5.37,0,0,0-.66-1.53Z"/><path d="M182.07,122.24c-.92-1.48-1.71-2.68-2.53-3.82l2.32-1.44,1.62,2.29.06,0a6.22,6.22,0,0,1,3.08-5.65c2-1.24,5.83-2,8.89,3l5.33,8.6-2.62,1.62-5.14-8.3c-1.44-2.32-3.51-3.72-6-2.19a4.37,4.37,0,0,0-1.85,4.86,4.52,4.52,0,0,0,.57,1.33l5.37,8.65-2.62,1.63Z"/><path d="M197.17,101.89a1.82,1.82,0,0,1-.67,2.64,1.84,1.84,0,0,1-2.58-.63,1.88,1.88,0,0,1,.62-2.65A1.84,1.84,0,0,1,197.17,101.89Zm8.52,20.25-8.93-14.4,2.62-1.62,8.92,14.4Z"/><path d="M211.22,115a8.06,8.06,0,0,0,4.1-1.1c1.9-1.18,2.21-2.69,1.47-3.87s-1.94-1.48-4.32-1c-3.16.68-5.26,0-6.34-1.72-1.43-2.32-.74-5.38,2.35-7.3a8.49,8.49,0,0,1,4.1-1.3l.52,2.31a6.56,6.56,0,0,0-3.46,1c-1.55,1-1.85,2.39-1.19,3.46s1.93,1.19,4.25.74c3.09-.6,5.14-.14,6.47,2,1.57,2.53.71,5.53-2.71,7.65a9.62,9.62,0,0,1-4.65,1.53Z"/><path d="M217.28,89.29l2.56,4.14,3.75-2.33,1.23,2-3.74,2.32,4.81,7.77c1.11,1.78,2.24,2.48,3.7,1.57a7.22,7.22,0,0,0,1.41-1.11l1.33,1.89a7.7,7.7,0,0,1-2.1,1.79,4.24,4.24,0,0,1-3.51.65c-1.22-.31-2.28-1.42-3.33-3.12L218.52,97l-2.23,1.38-1.24-2L217.28,95l-2.14-3.46Z"/><path d="M229.91,93.4c-1-1.69-2-3.13-2.9-4.42l2.29-1.42,1.84,2.77.12-.07a5.08,5.08,0,0,1,2-5.62,3.38,3.38,0,0,1,.8-.38l1.53,2.47a5.19,5.19,0,0,0-1,.47c-1.84,1.14-2.28,3.35-1.42,5.53a8.17,8.17,0,0,0,.64,1.3l4.75,7.67-2.58,1.61Z"/><path d="M252,83.85c2,3.48,5.12,4.08,7.82,2.4A10,10,0,0,0,263.2,83l1.61,1.55a12,12,0,0,1-4.1,3.94c-2.44,1.52-5.36,1.72-7.45.21l0,0a6.63,6.63,0,0,1-3.39,6.5c-3,1.87-5.74.77-7-1.32-2.07-3.33-.17-7.18,5.46-10.59l-.37-.59a3.75,3.75,0,0,0-5.36-1.13,8.22,8.22,0,0,0-3,3.39l-1.7-1.34a10.74,10.74,0,0,1,3.68-4.1c2.59-1.6,4.8-1.29,6.54.19l.06,0a6.44,6.44,0,0,1,3.13-6.18c4.4-2.73,8.26.77,9.73,3.15a6.5,6.5,0,0,1,.63,1.22Zm-2.6,1.2c-2.8,1.66-5.87,4.22-4.11,7a2.73,2.73,0,0,0,4,.83,4.14,4.14,0,0,0,1.95-4.63,3.79,3.79,0,0,0-.5-1.13ZM258,77.51c-.81-1.51-3.22-3.6-5.87-2s-2.28,4.75-1.36,6.45Z"/><path d="M269.16,53.54,280,70.94c.79,1.28,1.72,2.72,2.42,3.65L280,76.05l-1.67-2.43-.06,0a6.25,6.25,0,0,1-3.15,5.87c-3.48,2.16-8,.87-10.7-3.5-3-4.77-1.85-9.56,1.66-11.74a5.66,5.66,0,0,1,5.71-.49l.06,0-5.33-8.6Zm5.18,14.21a5.28,5.28,0,0,0-.8-1,4.52,4.52,0,0,0-5.66-.69c-2.71,1.68-2.84,5-.86,8.24,1.8,2.91,4.73,4.44,7.55,2.68a4.62,4.62,0,0,0,1.9-5.5,5.08,5.08,0,0,0-.58-1.2Z"/><path d="M284.48,64c2.25,3.51,5.42,3.56,8,1.94A11,11,0,0,0,296,62.69l1.61,1.6a13.8,13.8,0,0,1-4.24,3.86c-4.43,2.75-8.89,1.48-11.58-2.86s-2.26-9.35,1.94-12c4.7-2.91,8.51.45,10.15,3.1a9.69,9.69,0,0,1,.67,1.27ZM291,57.34c-1-1.68-3.32-3.83-6.27-2-2.64,1.64-2.29,4.8-1.38,6.74Z"/><path d="M531.78,92.76a32.54,32.54,0,0,1,3,5c1.42,2.93,1.8,5.08,1.25,7a5.9,5.9,0,0,1-3.22,3.63,6.21,6.21,0,0,1-7.36-1.37l-.09,0c.22,1.91-.81,3.62-2.77,5.2a37.78,37.78,0,0,0-5,4.46l-1.37-2.83a30.39,30.39,0,0,1,4.38-3.88c2.62-2.05,3.18-3.72,2.06-6.25l-1.25-2.59-9.19,4.47-1.33-2.74Zm-8.34,7.44,1.36,2.8c1.42,2.93,3.93,4,6.35,2.83,2.74-1.33,3-3.89,1.6-6.81a12.49,12.49,0,0,0-1.56-2.58Z"/><path d="M523.6,129.22l1.81-1.15,0-.1a6.3,6.3,0,0,1-4.54-3.56,4.83,4.83,0,0,1,2.12-6.78c3.68-1.79,7.29.51,10.12,6.41l.31-.15c1.26-.61,3.36-2.06,1.85-5.18a8.47,8.47,0,0,0-3.06-3.41l1.52-1.52a10.48,10.48,0,0,1,3.78,4.35c2.26,4.66-.37,7.34-3.42,8.82l-5.7,2.77a24.24,24.24,0,0,0-3.53,2Zm7.58-4.18c-1.41-3.06-3.61-6.23-6.57-4.79a2.74,2.74,0,0,0-1.38,3.9,4.22,4.22,0,0,0,4.34,2.44,3,3,0,0,0,1-.27Zm9.11-11.78a3.31,3.31,0,0,1,4.55,1.76,3.27,3.27,0,1,1-4.55-1.76Zm2.38,4.76a1.78,1.78,0,1,0-1.61-3.15,1.78,1.78,0,1,0,1.61,3.15Z"/><path d="M555.92,138.9l-18.42,8.94c-1.36.66-2.88,1.44-3.88,2l-1.21-2.49L535,146l0-.06a6.27,6.27,0,0,1-5.51-3.75c-1.79-3.68-.05-8,4.58-10.28,5.05-2.49,9.7-.85,11.5,2.86a5.67,5.67,0,0,1-.1,5.73l0,.07,9.1-4.42Zm-14.67,3.69a4.77,4.77,0,0,0,1.11-.69,4.53,4.53,0,0,0,1.27-5.56c-1.39-2.86-4.74-3.34-8.11-1.7-3.08,1.49-4.9,4.24-3.45,7.24a4.63,4.63,0,0,0,5.28,2.45,5.63,5.63,0,0,0,1.26-.45Z"/><path d="M558.46,144.13l1.34,2.77-9.51,4.61,0,.07a5.67,5.67,0,0,1,2.92,1,6.37,6.37,0,0,1,2.16,2.45c1,2.05,1.32,5.94-3.94,8.49l-9.07,4.4-1.34-2.77,8.75-4.25c2.46-1.19,4.09-3.11,2.83-5.73a4.44,4.44,0,0,0-4.58-2.37,3.77,3.77,0,0,0-1.41.45l-9.2,4.47L536.1,155Z"/><path d="M555.23,183.82q-2.36,1.14-4.1,2.14l-1.19-2.45,2.41-1.37,0-.06a6.39,6.39,0,0,1-5.28-3.67c-1.16-2.39-1.23-5.9,4.13-8.5l8.91-4.32,1.34,2.77-8.43,4.1c-2.9,1.4-4.43,3.23-3.2,5.75a4.45,4.45,0,0,0,4.29,2.43,4.64,4.64,0,0,0,1.54-.43l9.35-4.54,1.35,2.77Z"/><path d="M556.26,189.31a8.09,8.09,0,0,0,.67,4.19c1,2,2.45,2.47,3.7,1.86s1.67-1.79,1.43-4.2c-.35-3.21.53-5.24,2.36-6.12,2.46-1.19,5.44-.19,7,3.09a8.45,8.45,0,0,1,.88,4.2l-2.35.29a6.75,6.75,0,0,0-.63-3.55c-.8-1.64-2.19-2.09-3.32-1.54s-1.38,1.8-1.18,4.15c.28,3.13-.39,5.13-2.65,6.23-2.68,1.3-5.58.14-7.34-3.48a9.78,9.78,0,0,1-1-4.79Z"/><path d="M562.62,202.41a8,8,0,0,0,.67,4.18c1,2,2.44,2.48,3.7,1.87s1.67-1.79,1.43-4.2c-.35-3.21.53-5.24,2.36-6.12,2.45-1.2,5.43-.19,7,3.08a8.51,8.51,0,0,1,.88,4.21l-2.36.29a6.55,6.55,0,0,0-.63-3.55c-.79-1.64-2.18-2.09-3.31-1.54s-1.39,1.8-1.18,4.15c.28,3.13-.39,5.13-2.66,6.23-2.67,1.3-5.57.14-7.33-3.48a9.69,9.69,0,0,1-1-4.79Z"/><path d="M587.56,211.08l-4.37,2.12,1.92,4-2.11,1-1.92-4-8.22,4c-1.89.92-2.7,2-2,3.52a6.57,6.57,0,0,0,1,1.51l-2,1.14a7.5,7.5,0,0,1-1.57-2.28,4.26,4.26,0,0,1-.29-3.55c.44-1.19,1.65-2.13,3.45-3l8.31-4-1.14-2.37,2.11-1,1.14,2.36,3.66-1.77Z"/><path d="M582.17,223.22c1.8-.87,3.33-1.65,4.7-2.43l1.18,2.42-2.95,1.55.06.12a5.11,5.11,0,0,1,5.39,2.6,3.18,3.18,0,0,1,.28.84l-2.61,1.27a4.29,4.29,0,0,0-.36-1c-1-2-3.1-2.62-5.36-2a8.84,8.84,0,0,0-1.36.5L573,231.05l-1.33-2.74Z"/><path d="M589.4,246.13c-3.66,1.66-4.58,4.68-3.19,7.54a9.92,9.92,0,0,0,2.9,3.73l-1.7,1.45a12,12,0,0,1-3.51-4.49c-1.25-2.58-1.15-5.51.56-7.43l0-.06a6.63,6.63,0,0,1-6.12-4c-1.54-3.18-.17-5.8,2-6.87,3.53-1.71,7.16.57,10,6.52l.63-.3a3.76,3.76,0,0,0,1.68-5.21,8.34,8.34,0,0,0-3.06-3.34l1.5-1.55a10.68,10.68,0,0,1,3.69,4.08c1.33,2.74.79,4.91-.85,6.49l0,.07a6.42,6.42,0,0,1,5.82,3.74c2.26,4.66-1.61,8.14-4.13,9.36a6.6,6.6,0,0,1-1.28.5Zm-.92-2.7c-1.36-3-3.59-6.28-6.58-4.82a2.73,2.73,0,0,0-1.24,3.86,4.15,4.15,0,0,0,4.41,2.42,3.35,3.35,0,0,0,1.17-.38Zm6.61,9.36c1.58-.65,3.91-2.84,2.55-5.64s-4.49-2.76-6.27-2Z"/><path d="M617.78,266.36l-18.42,8.94c-1.36.66-2.88,1.44-3.88,2l-1.2-2.49,2.58-1.41,0-.06a6.27,6.27,0,0,1-5.51-3.75c-1.79-3.68-.05-8,4.58-10.28,5.05-2.49,9.7-.85,11.5,2.86a5.65,5.65,0,0,1-.1,5.73l0,.07,9.11-4.42Zm-14.66,3.7a5.37,5.37,0,0,0,1.1-.7,4.52,4.52,0,0,0,1.27-5.55c-1.39-2.87-4.74-3.35-8.11-1.71-3.08,1.49-4.9,4.24-3.45,7.24a4.64,4.64,0,0,0,5.28,2.45,5.46,5.46,0,0,0,1.26-.45Z"/><path d="M605.82,280.53c-3.71,1.88-4.09,5-2.75,7.79a11,11,0,0,0,2.84,3.84l-1.76,1.44a13.78,13.78,0,0,1-3.4-4.62c-2.28-4.69-.55-9,4-11.22s9.54-1.28,11.69,3.16c2.42,5-1.32,8.42-4.12,9.78a9.9,9.9,0,0,1-1.34.53Zm5.93,7.16c1.78-.83,4.15-2.91,2.64-6-1.36-2.8-4.54-2.78-6.57-2.06Z"/></g><g id="tekstt"><path class="cls-9" d="M399.31,826.38a1,1,0,0,1-1.67,0l-16.3-28.23-13.22-22.9a4.52,4.52,0,0,1,3.92-6.78H424.4a4.82,4.82,0,0,1,4.17,7.22l-13,22.46Z"/><path class="cls-9" d="M434.07,757.13c-2,21.35-15.61,36-35.7,36s-34.36-16-35.7-36,15.62-36.7,35.7-36.7S436,737.13,434.07,757.13Z"/><circle class="cls-10" cx="398.37" cy="753.46" r="14.35"/><path class="cls-9" d="M681.31,178.38a1,1,0,0,1-1.67,0l-16.3-28.23-13.22-22.9a4.52,4.52,0,0,1,3.92-6.78H706.4a4.82,4.82,0,0,1,4.17,7.22l-13,22.46Z"/><path class="cls-9" d="M716.07,109.13c-2,21.35-15.61,36-35.7,36s-34.36-16-35.7-36,15.62-36.7,35.7-36.7S718,89.13,716.07,109.13Z"/><circle class="cls-10" cx="680.37" cy="105.46" r="14.35"/></g></svg>