<svg xmlns="http://www.w3.org/2000/svg" width="2315" height="1618" viewBox="0 0 2315 1618"><defs><style>.cls-1{fill:#f2f2f2;stroke-width:9px;}.cls-1,.cls-2,.cls-3{stroke:#ccc;}.cls-1,.cls-2,.cls-3,.cls-6{stroke-miterlimit:10;}.cls-2,.cls-6{fill:none;}.cls-2,.cls-3{stroke-width:3px;}.cls-3,.cls-4,.cls-5{fill:red;}.cls-4{font-size:50px;letter-spacing:0.02em;}.cls-4,.cls-5{font-family:AkzidenzGrotesk-Bold, AkzidenzGrotesk;font-weight:700;}.cls-5{font-size:36px;letter-spacing:0.02em;}.cls-6{stroke:red;stroke-width:6px;}.cls-13,.cls-14,.cls-7{font-size:35px;font-family:MyriadPro-Regular, Myriad Pro;}.cls-7{letter-spacing:0.02em;}.cls-14,.cls-8{letter-spacing:0.02em;}.cls-9{letter-spacing:0.02em;}.cls-10{letter-spacing:0.02em;}.cls-11{letter-spacing:0.01em;}.cls-12,.cls-13{letter-spacing:0.02em;}.cls-15{letter-spacing:0.01em;}</style></defs><g id="omrids-2" data-name="omrids"><path class="cls-1" d="M246.5,1294.9s414-379.4,579-408.4l-406-588s-14.94-15-31.47,0S246.5,418.87,246.5,418.87Z"/><path class="cls-1" d="M392.5,1381.5,536,1248s14-16.53,20.75,0,65.49,133.53,65.49,133.53Z"/><path class="cls-1" d="M708.5,1381.5l-79-151s-28-50,8-75,226-138,226-138,53-23,87,22,225.55,342,225.55,342Z"/><path class="cls-1" d="M546.5,242.5l42,67s15,25,46,8,112-75,112-75Z"/><path class="cls-1" d="M1168.5,241.5s17.25,177.14,45.13,218c23.19,34,170.87,244,192.67,281.37,4,6.87,7.41,14.09,8.34,22,1.33,11.31.4,26.52-11.53,35C1382.5,812.5,1099.5,954.5,1099.5,954.5s-35,17-58-15-338-511-338-511-35-44,23-76,180.37-110,180.37-110Z"/><path class="cls-1" d="M1275.46,242.5s10.6,123.13,31,164c21,42,161,239,161,239s37,46,81.52,0,299.78-403,299.78-403Z"/><path class="cls-1" d="M1805.5,546.5c14,43.39,89.41,217.42,138,327,47,106,66,166,66,166v-798l-23.73,1-156.27,227S1794.5,512.5,1805.5,546.5Z"/><path class="cls-1" d="M2006.5,1257.5,1889.7,964.81s-5.63-20.81-29.92-9.06-173.28,82.75-173.28,82.75-42.9,21.39-54,42c-7,13-7,26-4,46,2.4,16,12,37,4,41s-13,5-28-24-18-98,38-129,207-99,207-99,20.57-12,10.28-38-117.28-252-117.28-252-11.35-15-27.18,0c0,0-75.59,93.27-102.21,116.14S1472.5,855.5,1431.5,878.5s-295,146.82-303.5,150.41-40.5,10.59-20.5,38.59,211.36,314,211.36,314H2006.5Z"/></g><g id="små_streger-2" data-name="små streger"><polygon class="cls-2" points="1943.5 1109.5 1970.5 1176.5 1837.5 1242.5 1805.12 1176.5 1943.5 1109.5"/><polygon class="cls-2" points="1758.5 1078.5 1905.5 1012.5 1943.5 1109.5 1805.12 1176.5 1758.5 1078.5"/><polygon class="cls-2" points="1727.78 1015.5 1880.5 950.5 1905.5 1012.5 1758.5 1078.5 1727.78 1015.5"/><polygon class="cls-2" points="1758.5 1375.57 1709.5 1275.5 1800.5 1233.5 1875.5 1375.5 1758.5 1375.57"/><polygon class="cls-2" points="1728.5 1266.5 1704.5 1223.5 1762.5 1199.5 1783.5 1240.5 1728.5 1266.5"/><polygon class="cls-2" points="1642.63 1375.57 1738.65 1335.06 1758.5 1375.57 1642.63 1375.57"/><polygon class="cls-2" points="1791.5 867.5 1807.5 897.5 1654.5 969.5 1598.5 844.5 1722.5 787.5 1703 743.23 1755.5 720.5 1815.5 856.5 1791.5 867.5"/><polygon class="cls-3" points="1364.5 926.5 1415.5 1026.5 1521.5 972.5 1471.5 873.5 1364.5 926.5"/><polygon class="cls-3" points="1629.63 1226.3 1544.37 1270.5 1423.64 1022.5 1509.61 979.84 1629.63 1226.3"/><polygon class="cls-3" points="1538.5 1273.5 1644.5 1218.5 1687.5 1308.5 1584.5 1364.5 1538.5 1273.5"/><polygon class="cls-2" points="1354.33 1375.57 1135.82 1024.5 1179.5 1005.5 1285.68 1078.5 1325.5 1142.5 1343.5 1144.5 1386.24 1221.5 1382.5 1240.5 1410.5 1282.5 1428.5 1275.5 1446.18 1304.53 1434.5 1315.5 1468.42 1375.57 1354.33 1375.57"/><polygon class="cls-2" points="1403.11 1129.38 1463.5 1254.5 1509.03 1233.5 1450.5 1108.5 1403.11 1129.38"/><polygon class="cls-2" points="1182.5 1007.5 1359.5 917.5 1403.5 1005.5 1371.5 1021.5 1378.5 1033.5 1342.5 1048.5 1334.5 1035.5 1265.47 1064.6 1182.5 1007.5"/><polygon class="cls-2" points="1470.5 1344.5 1538.5 1307.5 1565.92 1359.5 1525.02 1381.5 1491.5 1381.5 1470.5 1344.5"/></g><g id="tekstt"><text class="cls-4" transform="translate(1527.11 927.49)">ZeBU</text><text class="cls-5" transform="translate(1086.36 1074.52)">BUS 5C</text><line class="cls-6" x1="1149.88" y1="1085.18" x2="1120.37" y2="1124.1"/><line class="cls-6" x1="1150.46" y1="1124.02" x2="1120.37" y2="1085.1"/><text class="cls-7" transform="matrix(0.54, 0.84, -0.84, 0.54, 659.31, 521.53)">A<tspan class="cls-8" x="22.02" y="0">mage</tspan><tspan class="cls-9" x="107.97" y="0">r</tspan><tspan class="cls-10" x="120.26" y="0">b</tspan><tspan class="cls-11" x="140.87" y="0">r</tspan><tspan class="cls-12" x="152.67" y="0">ogade</tspan></text><text class="cls-13" transform="translate(481.44 1199.55) rotate(-38.85)">Englands<tspan class="cls-11" x="139.96" y="0">v</tspan><tspan x="157.15" y="0">ej</tspan></text><text class="cls-14" transform="translate(1454.14 818.12) rotate(-38.85)">Ø<tspan class="cls-15" x="24.81" y="0">r</tspan><tspan x="36.61" y="0">esunds</tspan><tspan class="cls-11" x="144.51" y="0">v</tspan><tspan class="cls-12" x="161.7" y="0">ej</tspan></text><text class="cls-13" transform="translate(1222.13 380.79) rotate(56.98)">D<tspan class="cls-11" x="24.01" y="0">r</tspan><tspan x="35.8" y="0">ogdesgade</tspan></text><text class="cls-7" transform="matrix(0.54, 0.84, -0.84, 0.54, 1100.96, 1170.36)">A<tspan class="cls-8" x="22.02" y="0">mage</tspan><tspan class="cls-9" x="107.97" y="0">r</tspan><tspan class="cls-10" x="120.26" y="0">b</tspan><tspan class="cls-11" x="140.87" y="0">r</tspan><tspan class="cls-12" x="152.67" y="0">ogade</tspan></text></g></svg>