<svg xmlns="http://www.w3.org/2000/svg" width="1789" height="1165" viewBox="0 0 1789 1165"><defs><style>.cls-1{fill:#f2f2f2;stroke-width:9px;}.cls-1,.cls-2,.cls-3{stroke:#ccc;stroke-miterlimit:10;}.cls-2{fill:none;}.cls-2,.cls-3{stroke-width:3px;}.cls-3,.cls-5{fill:red;}.cls-4{fill:#1a1a1a;}</style></defs><g id="omrids-2" data-name="omrids"><path class="cls-1" d="M12.5,1064.9s414-379.4,579-408.4l-406-588s-14.94-15-31.47,0S12.5,188.87,12.5,188.87Z"/><path class="cls-1" d="M158.5,1151.5,302,1018s14-16.53,20.75,0,65.49,133.53,65.49,133.53Z"/><path class="cls-1" d="M474.5,1151.5l-79-151s-28-50,8-75,226-138,226-138,53-23,87,22,225.55,342,225.55,342Z"/><path class="cls-1" d="M312.5,12.5l42,67s15,25,46,8,112-75,112-75Z"/><path class="cls-1" d="M934.5,11.5s17.25,177.14,45.13,218c23.19,34,170.87,244,192.67,281.37,4,6.87,7.41,14.09,8.34,22,1.33,11.31.4,26.52-11.53,35C1148.5,582.5,865.5,724.5,865.5,724.5s-35,17-58-15-338-511-338-511-35-44,23-76,180.37-110,180.37-110Z"/><path class="cls-1" d="M1041.46,12.5s10.6,123.13,31,164c21,42,161,239,161,239s37,46,81.52,0,299.78-403,299.78-403Z"/><path class="cls-1" d="M1571.5,316.5c14,43.39,89.41,217.42,138,327,47,106,66,166,66,166V11.5l-23.73,1-156.27,227S1560.5,282.5,1571.5,316.5Z"/><path class="cls-1" d="M1772.5,1027.5,1655.7,734.81s-5.63-20.81-29.92-9.06S1452.5,808.5,1452.5,808.5s-42.9,21.39-54,42c-7,13-7,26-4,46,2.4,16,12,37,4,41s-13,5-28-24-18-98,38-129,207-99,207-99,20.57-12,10.28-38-117.28-252-117.28-252-11.35-15-27.18,0c0,0-75.59,93.27-102.21,116.14S1238.5,625.5,1197.5,648.5,902.5,795.32,894,798.91s-40.5,10.59-20.5,38.59,211.36,314,211.36,314H1772.5Z"/></g><g id="små_streger-2" data-name="små streger"><polygon class="cls-2" points="1709.5 879.5 1736.5 946.5 1603.5 1012.5 1571.12 946.5 1709.5 879.5"/><polygon class="cls-2" points="1524.5 848.5 1671.5 782.5 1709.5 879.5 1571.12 946.5 1524.5 848.5"/><polygon class="cls-2" points="1493.78 785.5 1646.5 720.5 1671.5 782.5 1524.5 848.5 1493.78 785.5"/><polygon class="cls-2" points="1524.5 1145.57 1475.5 1045.5 1566.5 1003.5 1641.5 1145.5 1524.5 1145.57"/><polygon class="cls-2" points="1494.5 1036.5 1470.5 993.5 1528.5 969.5 1549.5 1010.5 1494.5 1036.5"/><polygon class="cls-2" points="1408.63 1145.57 1504.65 1105.06 1524.5 1145.57 1408.63 1145.57"/><polygon class="cls-2" points="1557.5 637.5 1573.5 667.5 1420.5 739.5 1364.5 614.5 1488.5 557.5 1469 513.23 1521.5 490.5 1581.5 626.5 1557.5 637.5"/><polygon class="cls-3" points="1130.5 696.5 1181.5 796.5 1287.5 742.5 1237.5 643.5 1130.5 696.5"/><polygon class="cls-3" points="1395.63 996.3 1310.37 1040.5 1189.64 792.5 1275.61 749.84 1395.63 996.3"/><polygon class="cls-3" points="1304.5 1043.5 1410.5 988.5 1453.5 1078.5 1350.5 1134.5 1304.5 1043.5"/><polygon class="cls-2" points="1120.33 1145.57 901.82 794.5 945.5 775.5 1051.68 848.5 1091.5 912.5 1109.5 914.5 1152.24 991.5 1148.5 1010.5 1176.5 1052.5 1194.5 1045.5 1212.18 1074.53 1200.5 1085.5 1234.42 1145.57 1120.33 1145.57"/><polygon class="cls-2" points="1169.11 899.38 1229.5 1024.5 1275.03 1003.5 1216.5 878.5 1169.11 899.38"/><polygon class="cls-2" points="948.5 777.5 1125.5 687.5 1169.5 775.5 1137.5 791.5 1144.5 803.5 1108.5 818.5 1100.5 805.5 1031.47 834.6 948.5 777.5"/><polygon class="cls-2" points="1236.5 1114.5 1304.5 1077.5 1331.92 1129.5 1291.02 1151.5 1257.5 1151.5 1236.5 1114.5"/></g><g id="tekstt"><path d="M1241.06,732.59l19.2-23.8h-17.55v-5.9h26.1v5.9l-19.15,23.8h19.15v5.9h-27.75Z"/><path d="M1278.56,727.29a6.55,6.55,0,0,0,.6,2.55,5.87,5.87,0,0,0,1.48,1.95,6.94,6.94,0,0,0,2.07,1.25,6.55,6.55,0,0,0,2.4.45,8.94,8.94,0,0,0,5.23-1.5,6.29,6.29,0,0,0,1.35-1.2c.31-.4.56-.7.72-.9l5.15,3a13.24,13.24,0,0,1-1.77,2.2,12.63,12.63,0,0,1-2.58,2,13.64,13.64,0,0,1-3.5,1.45,17.21,17.21,0,0,1-4.6.55,14.16,14.16,0,0,1-5.5-1,11.41,11.41,0,0,1-4-2.77,12.2,12.2,0,0,1-2.52-4.2,16.25,16.25,0,0,1,0-10.55,12,12,0,0,1,2.52-4.2,11.56,11.56,0,0,1,4-2.78,14.35,14.35,0,0,1,5.5-1,13.35,13.35,0,0,1,5.45,1,9.85,9.85,0,0,1,3.8,2.92,12.22,12.22,0,0,1,2.2,4.63,24.45,24.45,0,0,1,.7,6.12Zm12.3-4.7a4.24,4.24,0,0,0-.32-1.35,5.69,5.69,0,0,0-1-1.65,6.49,6.49,0,0,0-1.77-1.4,5.33,5.33,0,0,0-2.63-.6,6.34,6.34,0,0,0-4.37,1.48,6.78,6.78,0,0,0-2.18,3.52Z"/><path d="M1302.81,702.89h16.75a15.21,15.21,0,0,1,4.13.55,10,10,0,0,1,3.35,1.65,7.85,7.85,0,0,1,2.25,2.78,8.64,8.64,0,0,1,.82,3.87,7.18,7.18,0,0,1-1.55,4.8,7.32,7.32,0,0,1-4.5,2.4v.1a8.64,8.64,0,0,1,3.28,1,8.26,8.26,0,0,1,3.87,4.7,9.59,9.59,0,0,1,.5,3.1,11.52,11.52,0,0,1-1.1,5.43,8.33,8.33,0,0,1-3,3.25,11.7,11.7,0,0,1-4.4,1.57,32.7,32.7,0,0,1-5.25.4h-15.15Zm6.7,14.3h8a9.86,9.86,0,0,0,2.13-.22,4.88,4.88,0,0,0,1.8-.78,4.12,4.12,0,0,0,1.25-1.4,4.31,4.31,0,0,0,.47-2.15,4.14,4.14,0,0,0-1.35-3.25,6.37,6.37,0,0,0-4.3-1.2h-8Zm0,15.4h8.7a9.08,9.08,0,0,0,4.78-1.07c1.15-.72,1.72-2,1.72-3.88s-.58-3.41-1.75-4.22a8.2,8.2,0,0,0-4.8-1.23h-8.65Z"/><path d="M1365.86,727.54a11.49,11.49,0,0,1-1,4.9,10.51,10.51,0,0,1-2.93,3.75,13.22,13.22,0,0,1-4.55,2.38,21.35,21.35,0,0,1-11.72,0,13.4,13.4,0,0,1-4.53-2.38,10.48,10.48,0,0,1-2.92-3.75,11.35,11.35,0,0,1-1-4.9V702.89h6.7v22.9a10.61,10.61,0,0,0,.38,3,5.21,5.21,0,0,0,1.27,2.23,6,6,0,0,0,2.35,1.42,13.5,13.5,0,0,0,7.28,0,5.91,5.91,0,0,0,2.37-1.42,5.23,5.23,0,0,0,1.28-2.23,10.63,10.63,0,0,0,.37-3v-22.9h6.7Z"/><path d="M854.7,818.88h12.06a11,11,0,0,1,3,.4,7.06,7.06,0,0,1,2.41,1.19,5.68,5.68,0,0,1,1.62,2,6.3,6.3,0,0,1,.59,2.79,5.2,5.2,0,0,1-1.11,3.45,5.33,5.33,0,0,1-3.24,1.73v.07a6.23,6.23,0,0,1,2.35.72,5.94,5.94,0,0,1,2.79,3.39,7,7,0,0,1,.36,2.23,8.26,8.26,0,0,1-.79,3.9,6,6,0,0,1-2.16,2.34,8.38,8.38,0,0,1-3.17,1.14,24.15,24.15,0,0,1-3.78.29H854.7Zm4.82,10.3h5.72a7,7,0,0,0,1.53-.16,3.4,3.4,0,0,0,1.3-.56,3,3,0,0,0,.9-1,3.11,3.11,0,0,0,.34-1.54,3,3,0,0,0-1-2.35,4.63,4.63,0,0,0-3.1-.86h-5.72Zm0,11.09h6.26a6.54,6.54,0,0,0,3.44-.77,3,3,0,0,0,1.24-2.79,3.46,3.46,0,0,0-1.26-3.05,6,6,0,0,0-3.45-.88h-6.23Z"/><path d="M900.09,836.63a8.11,8.11,0,0,1-.74,3.53,7.49,7.49,0,0,1-2.1,2.7,9.65,9.65,0,0,1-3.28,1.71,15.14,15.14,0,0,1-8.44,0,9.64,9.64,0,0,1-3.26-1.71,7.49,7.49,0,0,1-2.1-2.7,8.11,8.11,0,0,1-.74-3.53V818.88h4.82v16.49a7.7,7.7,0,0,0,.27,2.13,3.76,3.76,0,0,0,.92,1.6,4.3,4.3,0,0,0,1.69,1,9.71,9.71,0,0,0,5.24,0,4.24,4.24,0,0,0,1.71-1,3.76,3.76,0,0,0,.92-1.6,7.7,7.7,0,0,0,.27-2.13V818.88h4.82Z"/><path d="M907.26,836.81a8.22,8.22,0,0,0,3.36,3,10.1,10.1,0,0,0,4.38.94,11,11,0,0,0,1.83-.16,6.78,6.78,0,0,0,1.77-.54,3.87,3.87,0,0,0,1.31-1,2.36,2.36,0,0,0,.52-1.57,2.14,2.14,0,0,0-.34-1.25,3,3,0,0,0-1-.89,8.08,8.08,0,0,0-1.65-.66c-.65-.2-1.41-.39-2.27-.58l-2.84-.65a24.67,24.67,0,0,1-2.94-.86,9.41,9.41,0,0,1-2.45-1.32,6.09,6.09,0,0,1-1.69-2,6.34,6.34,0,0,1-.63-3,7,7,0,0,1,.88-3.53,7.84,7.84,0,0,1,2.29-2.5,10.26,10.26,0,0,1,3.19-1.48,13.66,13.66,0,0,1,3.58-.48,14,14,0,0,1,6,1.24,12.48,12.48,0,0,1,4.7,3.9l-4,3a6.64,6.64,0,0,0-2.64-2.74,8.12,8.12,0,0,0-4.09-1,7.34,7.34,0,0,0-3.47.74,2.28,2.28,0,0,0-1.39,2.1,2,2,0,0,0,.42,1.32,3.19,3.19,0,0,0,1.15.88,8,8,0,0,0,1.69.59l2,.49,3.14.68a24,24,0,0,1,2.77.81,8.68,8.68,0,0,1,2.36,1.3,6.08,6.08,0,0,1,1.65,2,6.79,6.79,0,0,1,.63,3.08,7.29,7.29,0,0,1-1,4,7.94,7.94,0,0,1-2.61,2.61,11.08,11.08,0,0,1-3.61,1.42,19,19,0,0,1-4,.44,14.87,14.87,0,0,1-3.17-.35,14.69,14.69,0,0,1-3-1,13.47,13.47,0,0,1-2.72-1.7,10.44,10.44,0,0,1-2.16-2.34Z"/><path d="M941.67,820h13.68l-.47,4.25h-9.46l-.76,5.11a6.45,6.45,0,0,1,4.39-1.73,8.15,8.15,0,0,1,3.4.66,6.73,6.73,0,0,1,2.42,1.82,7.83,7.83,0,0,1,1.42,2.68,11.12,11.12,0,0,1,.47,3.23,9.44,9.44,0,0,1-.71,3.76,8.32,8.32,0,0,1-1.9,2.79,7.94,7.94,0,0,1-2.88,1.74,10.7,10.7,0,0,1-3.62.6,12.08,12.08,0,0,1-3.24-.43,8,8,0,0,1-2.67-1.32,6.51,6.51,0,0,1-1.85-2.25,7.44,7.44,0,0,1-.77-3.2l5-.4a4.15,4.15,0,0,0,1,2.67,3.15,3.15,0,0,0,2.55,1.11,3.74,3.74,0,0,0,1.88-.43,3.84,3.84,0,0,0,1.24-1.13,4.69,4.69,0,0,0,.7-1.61,8.12,8.12,0,0,0,.22-1.87,4.71,4.71,0,0,0-1.14-3.53,4.11,4.11,0,0,0-3-1.08,3.59,3.59,0,0,0-2.18.6,4.16,4.16,0,0,0-1.31,1.75l-4.18-.33Z"/><path d="M978,827.49a5.71,5.71,0,0,0-.63-2,5.27,5.27,0,0,0-1.25-1.52,5.8,5.8,0,0,0-1.72-1,6.4,6.4,0,0,0-2.06-.34,6.59,6.59,0,0,0-3.27.77,6.73,6.73,0,0,0-2.25,2.06,8.94,8.94,0,0,0-1.3,2.89,13.41,13.41,0,0,0,0,6.58,9,9,0,0,0,1.3,2.87,6.73,6.73,0,0,0,2.25,2.06,6.59,6.59,0,0,0,3.27.77,5.9,5.9,0,0,0,2.25-.4,5.59,5.59,0,0,0,1.75-1.08,6.58,6.58,0,0,0,1.3-1.63,11.35,11.35,0,0,0,.9-2.07l4.39,2a12.61,12.61,0,0,1-4.14,5.76,10.73,10.73,0,0,1-6.45,1.88,12.51,12.51,0,0,1-5.38-1.09,10.92,10.92,0,0,1-3.83-2.93,12.39,12.39,0,0,1-2.31-4.3,17.48,17.48,0,0,1-.75-5.15,15.8,15.8,0,0,1,.84-5.15,13.45,13.45,0,0,1,2.43-4.3,11.44,11.44,0,0,1,3.86-2.93,11.79,11.79,0,0,1,5.14-1.08,10.89,10.89,0,0,1,6.63,2,10,10,0,0,1,3.67,6Z"/><rect x="876.7" y="871.64" width="48.85" height="6" transform="translate(-340.29 1064.13) rotate(-52.82)"/><rect x="898.41" y="849.96" width="6" height="49.2" transform="translate(-346.64 734.01) rotate(-37.71)"/><path d="M435.05,292.9l-7.56,2-1.72-2.64,24.15-6.13,2,3.08-15.39,19.61-1.77-2.73,4.85-6.16Zm6.21,5.19,4.43-5.63c1-1.28,2-2.34,2.94-3.38l0-.05c-1.37.46-2.78.92-4.23,1.32l-7,1.79Z"/><path d="M449,305.39c1.47-.95,2.66-1.77,3.77-2.62l1.47,2.26-2.21,1.61.06.09a5.83,5.83,0,0,1,5.51,2.76,5,5,0,0,1-.24,5.87l0,.06a6.91,6.91,0,0,1,2.88.38,5.78,5.78,0,0,1,3,2.49c1.22,1.88,1.8,5.47-3.13,8.68l-8.37,5.43-1.64-2.52,8-5.23c2.73-1.77,3.72-3.84,2.37-5.92a4,4,0,0,0-4.34-1.53,5,5,0,0,0-1.42.64l-8.78,5.7L444.46,321l8.51-5.53c2.26-1.47,3.26-3.53,2-5.5a4.21,4.21,0,0,0-4.66-1.52,4.15,4.15,0,0,0-1.4.62l-8.57,5.57-1.64-2.53Z"/><path d="M460.08,345.05l1.66-1.37-.06-.09a6.26,6.26,0,0,1-4.93-3,4.82,4.82,0,0,1,1.25-7c3.44-2.23,7.3-.4,10.84,5.1l.29-.19c1.17-.76,3.08-2.45,1.19-5.36a8.49,8.49,0,0,0-3.46-3l1.32-1.69a10.47,10.47,0,0,1,4.3,3.84c2.82,4.35.54,7.33-2.31,9.18L464.86,345a23.3,23.3,0,0,0-3.25,2.45Zm7-5.09c-1.77-2.86-4.35-5.73-7.1-3.94a2.72,2.72,0,0,0-.89,4A4.22,4.22,0,0,0,463.7,342a3.45,3.45,0,0,0,.92-.39Z"/><path d="M486.7,354.92c-1.06.61-2.24,1.3-4,2.42l-8.24,5.36c-3.26,2.12-5.68,2.77-7.81,2.19a9,9,0,0,1-5.05-4.06,10.87,10.87,0,0,1-1.9-5.48l2.38-.64a9.63,9.63,0,0,0,1.6,4.9c1.71,2.64,4.35,3.68,7.93,1.35l1.59-1,0-.06a6,6,0,0,1-5.31-3c-2.29-3.52-.94-8,3-10.55,4.82-3.13,9.59-1.76,11.7,1.5a5.62,5.62,0,0,1,.42,6l0,.06,2.22-1.28Zm-7.34,1a4.51,4.51,0,0,0,1.08-.91,4.45,4.45,0,0,0,.39-5.39c-1.61-2.46-4.84-2.87-8.12-.73-2.79,1.81-4.19,4.72-2.38,7.51a4.5,4.5,0,0,0,5,1.87,5.61,5.61,0,0,0,1.51-.69Z"/><path d="M483.15,366c-3.45,2.32-3.44,5.49-1.76,8.07a11.12,11.12,0,0,0,3.29,3.46l-1.56,1.64a13.59,13.59,0,0,1-3.95-4.15c-2.85-4.38-1.67-8.86,2.62-11.64s9.3-2.46,12,1.68c3,4.64-.27,8.52-2.88,10.22-.53.34-1,.55-1.26.7Zm6.78,6.37c1.66-1,3.75-3.41,1.86-6.31-1.69-2.61-4.84-2.19-6.77-1.24Z"/><path d="M495.3,377.85c1.67-1.09,3.09-2.05,4.35-3l1.47,2.26-2.73,1.9.08.12a5.07,5.07,0,0,1,5.66,1.91,3.21,3.21,0,0,1,.39.79l-2.43,1.58a5,5,0,0,0-.49-.93c-1.18-1.83-3.4-2.22-5.56-1.31a9.3,9.3,0,0,0-1.29.66l-7.57,4.92-1.66-2.55Z"/><path d="M492.14,394.38c1-.57,2.48-1.44,3.75-2.26L513.06,381l1.66,2.55-8.93,5.8,0,.06a6.3,6.3,0,0,1,5.76,3.14c2.29,3.53,1,7.93-3.36,10.7-5.08,3.3-9.68,1.74-11.74-1.43a6,6,0,0,1-.42-6.49l-.05-.09-2.43,1.41Zm7.43-1a5.61,5.61,0,0,0-.86.73,4.75,4.75,0,0,0-.51,5.84c1.76,2.7,5,2.88,8.27.77,2.84-1.85,4.32-4.9,2.53-7.66a4.9,4.9,0,0,0-5.72-1.88,7.67,7.67,0,0,0-1.16.54Z"/><path d="M513.22,405.43c1.68-1.08,3.1-2.05,4.36-3l1.47,2.26-2.73,1.9.07.11a5.09,5.09,0,0,1,5.67,1.91,3.26,3.26,0,0,1,.39.8L520,411a4.41,4.41,0,0,0-.48-.94c-1.18-1.82-3.4-2.21-5.57-1.31a8.36,8.36,0,0,0-1.28.67l-7.57,4.92-1.66-2.55Z"/><path d="M525.45,429.84c-5.25,3.41-9.91,1.26-12.14-2.17-2.5-3.85-1.6-8.64,2.89-11.56,4.75-3.09,9.56-1.79,12.12,2.14S529.8,427,525.45,429.84ZM518,418.66c-3.11,2-4.29,5.34-2.65,7.86s5.12,2.81,8.32.73c2.4-1.56,4.68-4.75,2.69-7.8S520.68,416.91,518,418.66Z"/><path d="M542.89,441.38c-1.07.61-2.25,1.3-4,2.42l-8.25,5.36c-3.26,2.12-5.67,2.77-7.8,2.19a9,9,0,0,1-5.06-4.06,10.9,10.9,0,0,1-1.9-5.49l2.39-.63a9.55,9.55,0,0,0,1.59,4.89c1.72,2.64,4.36,3.69,7.94,1.36l1.58-1,0-.06a6,6,0,0,1-5.31-3c-2.29-3.52-.94-8,3-10.54,4.81-3.13,9.58-1.76,11.7,1.49a5.63,5.63,0,0,1,.41,6l0,.06,2.22-1.28Zm-7.34,1a4,4,0,0,0,1.07-.91,4.42,4.42,0,0,0,.39-5.38c-1.6-2.46-4.83-2.87-8.12-.74-2.79,1.82-4.19,4.73-2.38,7.52a4.51,4.51,0,0,0,5,1.86A5.19,5.19,0,0,0,533,444Z"/><path d="M536.88,463.23l1.66-1.37-.06-.09a6.26,6.26,0,0,1-4.93-3,4.82,4.82,0,0,1,1.25-7c3.44-2.23,7.3-.4,10.84,5.11l.29-.19c1.17-.77,3.08-2.46,1.19-5.37a8.49,8.49,0,0,0-3.46-3l1.32-1.69a10.47,10.47,0,0,1,4.3,3.84c2.82,4.35.54,7.33-2.31,9.18l-5.31,3.45a23.3,23.3,0,0,0-3.25,2.45Zm7-5.09c-1.77-2.86-4.34-5.73-7.1-3.94a2.73,2.73,0,0,0-.89,4,4.22,4.22,0,0,0,4.61,1.89,3.45,3.45,0,0,0,.92-.39Z"/><path d="M570.16,468.82,553,480c-1.27.82-2.68,1.79-3.6,2.5l-1.5-2.31,2.39-1.72,0-.06a6.29,6.29,0,0,1-5.94-3c-2.23-3.44-1-8,3.28-10.77,4.7-3.1,9.52-2,11.77,1.41a5.67,5.67,0,0,1,.61,5.69l0,.06,8.48-5.51Zm-14.1,5.49a5.33,5.33,0,0,0,1-.82,4.53,4.53,0,0,0,.57-5.68c-1.73-2.67-5.11-2.73-8.25-.69-2.88,1.87-4.34,4.83-2.53,7.62a4.64,4.64,0,0,0,5.55,1.78,5.17,5.17,0,0,0,1.19-.61Z"/><path d="M560.05,484.37c-3.45,2.32-3.44,5.49-1.76,8.07a11.12,11.12,0,0,0,3.29,3.46L560,497.54a13.71,13.71,0,0,1-4-4.15c-2.84-4.38-1.66-8.86,2.62-11.64s9.31-2.46,12,1.68c3,4.64-.26,8.52-2.87,10.22a12.1,12.1,0,0,1-1.26.69Zm6.77,6.37c1.66-1,3.76-3.41,1.87-6.31-1.7-2.61-4.85-2.2-6.77-1.24Z"/><path d="M252.07,951.62l-7.14,5.75,5.33,6.63,8-6.41,1.61,2-10.34,8.32L234.7,949.52l9.92-8,1.6,2-7.55,6.08,4.68,5.81,7.14-5.75Z"/><path d="M255.62,947.1c-1.1-1.36-2-2.46-3-3.48l2.13-1.72,1.89,2.07.06,0a6.21,6.21,0,0,1,2.36-6c1.83-1.47,5.54-2.67,9.18,1.86l6.35,7.88-2.4,1.93L266.07,942c-1.71-2.12-3.93-3.26-6.19-1.44a4.38,4.38,0,0,0-1.24,5.05,4.5,4.5,0,0,0,.74,1.25l6.39,7.93-2.4,1.93Z"/><path d="M279.78,921.75c.72,1,1.52,2.1,2.81,3.71l6.17,7.66c2.44,3,3.33,5.36,3,7.54a9,9,0,0,1-3.52,5.45,11,11,0,0,1-5.27,2.44l-.87-2.31a9.58,9.58,0,0,0,4.71-2.08c2.45-2,3.22-4.71.54-8l-1.19-1.47-.05,0a6.07,6.07,0,0,1-2.42,5.59c-3.27,2.63-7.86,1.74-10.8-1.91-3.6-4.47-2.73-9.36.3-11.79a5.62,5.62,0,0,1,6-1l.06,0-1.5-2.08Zm1.72,7.2a4.52,4.52,0,0,0-6.41-.81c-2.3,1.84-2.37,5.1.09,8.15,2.08,2.59,5.13,3.69,7.72,1.6a4.5,4.5,0,0,0,1.35-5.13,5.85,5.85,0,0,0-.84-1.44Z"/><path d="M279.23,912l2.4-1.93,15.59,19.36-2.4,1.93Z"/><path d="M309.11,919.88l-1.53-1.51-.09.07a6.29,6.29,0,0,1-2.45,5.21,4.82,4.82,0,0,1-7.08-.54c-2.57-3.19-1.15-7.22,4-11.29l-.23-.28c-.87-1.09-2.75-2.81-5.45-.63a8.45,8.45,0,0,0-2.65,3.74l-1.82-1.14a10.47,10.47,0,0,1,3.4-4.66c4-3.25,7.23-1.29,9.36,1.36l4,4.93a24.9,24.9,0,0,0,2.77,3Zm-5.78-6.45c-2.66,2.06-5.26,4.91-3.2,7.48a2.73,2.73,0,0,0,4.11.46,4.2,4.2,0,0,0,1.41-4.77,3.13,3.13,0,0,0-.48-.88Z"/><path d="M307.73,905.12c-1.09-1.36-2-2.46-3-3.48l2.13-1.71,1.89,2.07.05,0a6.23,6.23,0,0,1,2.37-6c1.82-1.47,5.53-2.66,9.18,1.86l6.34,7.88-2.39,1.93-6.13-7.6c-1.71-2.13-3.93-3.27-6.19-1.44a4.37,4.37,0,0,0-1.24,5,4.31,4.31,0,0,0,.73,1.25l6.39,7.93-2.4,1.94Z"/><path d="M327,873.59l12.85,15.95c.94,1.17,2.05,2.48,2.85,3.32l-2.15,1.73-2-2.2-.05,0a6.28,6.28,0,0,1-2.41,6.22c-3.19,2.56-7.82,1.84-11-2.17-3.56-4.36-3-9.26.21-11.85a5.69,5.69,0,0,1,5.61-1.19l.05,0-6.35-7.88Zm6.89,13.46a5.72,5.72,0,0,0-.92-.92,4.53,4.53,0,0,0-5.7,0c-2.48,2-2.2,5.36.15,8.28,2.15,2.67,5.24,3.83,7.83,1.74a4.61,4.61,0,0,0,1.21-5.69,5.36,5.36,0,0,0-.72-1.13Z"/><path d="M344.77,887.11a8.12,8.12,0,0,0,3.93-1.59c1.75-1.41,1.86-2.94,1-4s-2.11-1.22-4.41-.45c-3.06,1.07-5.23.66-6.5-.92-1.71-2.13-1.4-5.26,1.44-7.54a8.42,8.42,0,0,1,3.9-1.8l.8,2.23a6.58,6.58,0,0,0-3.31,1.41c-1.42,1.14-1.55,2.6-.76,3.58s2.07.94,4.31.21c3-1,5.09-.77,6.67,1.2,1.86,2.31,1.38,5.4-1.75,7.92a9.62,9.62,0,0,1-4.44,2.09Z"/><path d="M348.71,866.23l8.57,5.33a42,42,0,0,1,3.78,2.52l.08-.07c-.57-1.33-1.07-2.73-1.6-4.28l-3.41-9.48,2.51-2,5.45,17.37-2.3,1.84-15.64-9.15Z"/><path d="M368.17,862.15c2.67,3.2,5.82,2.87,8.22.94a11.1,11.1,0,0,0,3.1-3.63l1.79,1.39a13.62,13.62,0,0,1-3.73,4.35c-4.06,3.27-8.64,2.56-11.84-1.42s-3.39-9,.46-12.1c4.3-3.47,8.5-.6,10.45,1.82a10.51,10.51,0,0,1,.82,1.19Zm5.65-7.38c-1.2-1.55-3.76-3.39-6.46-1.22-2.43,2-1.69,5-.54,6.86Z"/><path d="M375.36,838.65a1.81,1.81,0,0,1-.31,2.68,1.84,1.84,0,0,1-2.66-.28,1.89,1.89,0,0,1,.32-2.73A1.82,1.82,0,0,1,375.36,838.65Zm10.5,25.71a5,5,0,0,0,1.8-3.12c0-1.29-.55-2.52-3.09-5.69l-8.9-11,2.4-1.93,9.64,12c2.07,2.56,3,4.55,2.79,6.7a7.82,7.82,0,0,1-2.88,4.79Z"/><path d="M1221.93,586.86l-.24-3.76a12.68,12.68,0,0,1-7.89-4.83c-4.68-5.81-4-12.56.74-16.43a9.92,9.92,0,0,1,5.75-2.24l-.17-3.5,2.23-.19.2,3.71a12.71,12.71,0,0,1,7.82,4.85c5.16,6.41,3.82,12.83-.57,16.37a10.05,10.05,0,0,1-5.85,2.28l.17,3.73Zm-1.41-24.57a6.73,6.73,0,0,0-4.47,1.48c-4,3.23-3,8.56.06,12.41a11.91,11.91,0,0,0,5.34,3.83v0Zm3.2,18.14a6.07,6.07,0,0,0,4.49-1.45c3.84-3.1,3.14-8.33-.2-12.47a11.44,11.44,0,0,0-5.13-3.74l-.08.06Z"/><path d="M1234.13,561.89c-1.25-1.55-2.35-2.87-3.42-4l2.09-1.69,2.17,2.52.11-.08a5.07,5.07,0,0,1,1.33-5.83,3.25,3.25,0,0,1,.74-.47l1.83,2.26a4.31,4.31,0,0,0-.89.58c-1.69,1.36-1.85,3.61-.73,5.67a8.21,8.21,0,0,0,.79,1.2l5.66,7-2.37,1.91Z"/><path d="M1247,556.33c2.67,3.2,5.82,2.87,8.22.94a11.22,11.22,0,0,0,3.1-3.63l1.79,1.39a13.62,13.62,0,0,1-3.73,4.35c-4.06,3.28-8.64,2.56-11.84-1.42s-3.39-9,.45-12.1c4.31-3.47,8.51-.6,10.46,1.82a10.51,10.51,0,0,1,.82,1.19Zm5.65-7.38c-1.2-1.55-3.76-3.39-6.46-1.22-2.43,1.95-1.69,5-.54,6.86Z"/><path d="M1262.53,549.94a8.16,8.16,0,0,0,3.93-1.59c1.74-1.41,1.86-2.94,1-4s-2.11-1.22-4.41-.45c-3,1.07-5.22.66-6.5-.92-1.71-2.13-1.4-5.26,1.44-7.54a8.42,8.42,0,0,1,3.9-1.8l.81,2.23a6.57,6.57,0,0,0-3.32,1.41c-1.41,1.14-1.55,2.6-.76,3.58s2.07.94,4.31.22c3-1,5.09-.78,6.67,1.19,1.87,2.31,1.38,5.4-1.75,7.92a9.59,9.59,0,0,1-4.43,2.09Z"/><path d="M1284.31,530.51c1.1,1.36,2.09,2.54,3,3.51l-2.13,1.71-1.87-2,0,0a6.37,6.37,0,0,1-2.39,6c-2.07,1.67-5.47,2.52-9.21-2.12l-6.21-7.71,2.4-1.93,5.88,7.3c2,2.51,4.15,3.59,6.33,1.83a4.36,4.36,0,0,0,.64-6.13l-6.53-8.1,2.4-1.93Z"/><path d="M1284,520.84c-1.09-1.36-2-2.46-3-3.49l2.12-1.71,1.9,2.07,0,0a6.22,6.22,0,0,1,2.37-6c1.82-1.47,5.53-2.67,9.18,1.86l6.35,7.88-2.4,1.93-6.13-7.61c-1.71-2.12-3.93-3.26-6.19-1.44a4.38,4.38,0,0,0-1.24,5.05,4.44,4.44,0,0,0,.73,1.25l6.39,7.93-2.4,1.93Z"/><path d="M1303.21,489.3l12.85,15.95c.94,1.17,2,2.49,2.85,3.32l-2.15,1.74-2-2.21,0,0a6.27,6.27,0,0,1-2.41,6.21c-3.19,2.57-7.82,1.85-11-2.16-3.56-4.37-3-9.26.21-11.85a5.65,5.65,0,0,1,5.6-1.19l.06,0-6.35-7.88Zm6.89,13.47a5.34,5.34,0,0,0-.92-.92,4.54,4.54,0,0,0-5.7,0c-2.48,2-2.2,5.37.15,8.29,2.15,2.67,5.24,3.82,7.83,1.74a4.64,4.64,0,0,0,1.21-5.7,5.57,5.57,0,0,0-.72-1.12Z"/><path d="M1321,502.83a8.08,8.08,0,0,0,3.93-1.6c1.75-1.4,1.86-2.93,1-4s-2.11-1.23-4.41-.45c-3,1.06-5.23.65-6.5-.93-1.71-2.12-1.4-5.25,1.44-7.54a8.49,8.49,0,0,1,3.9-1.79l.8,2.23a6.58,6.58,0,0,0-3.31,1.41c-1.42,1.14-1.55,2.59-.76,3.57s2.07,1,4.31.22c3-1,5.09-.77,6.67,1.19,1.86,2.32,1.38,5.4-1.75,7.93a9.83,9.83,0,0,1-4.44,2.09Z"/><path d="M1325,481.94l8.57,5.33a42,42,0,0,1,3.78,2.53l.08-.07c-.57-1.33-1.07-2.73-1.6-4.28l-3.41-9.48,2.51-2,5.44,17.37-2.28,1.84L1322.4,484Z"/><path d="M1344.42,477.87c2.67,3.2,5.82,2.86,8.22.93a11.21,11.21,0,0,0,3.1-3.62l1.79,1.38a13.52,13.52,0,0,1-3.73,4.36c-4.06,3.27-8.64,2.55-11.84-1.43s-3.39-9,.46-12.1c4.3-3.47,8.5-.6,10.45,1.83a10.59,10.59,0,0,1,.82,1.18Zm5.65-7.39c-1.2-1.54-3.76-3.39-6.46-1.22-2.43,2-1.69,5.05-.54,6.87Z"/><path d="M1351.61,454.37a1.81,1.81,0,0,1-.31,2.68,1.85,1.85,0,0,1-2.66-.29A1.89,1.89,0,0,1,1349,454,1.82,1.82,0,0,1,1351.61,454.37Zm10.5,25.7a5,5,0,0,0,1.8-3.11c0-1.29-.55-2.53-3.09-5.69l-8.9-11,2.4-1.93,9.64,12c2.07,2.57,3,4.56,2.79,6.7a7.87,7.87,0,0,1-2.88,4.8Z"/><path d="M1009.06,140.33a42.66,42.66,0,0,1,3.94,5.16c2.39,3.67,3.24,6.84,2.75,9.62s-2.1,5.32-5.29,7.4a12.46,12.46,0,0,1-9.54,2.15c-3.06-.65-6-3-8.54-6.9a49.71,49.71,0,0,1-2.77-4.78Zm-15.83,13.92a19.06,19.06,0,0,0,1.53,2.68c3.55,5.46,8.53,6.44,13.87,3,4.69-3,5.93-7.57,2.43-13a17.43,17.43,0,0,0-2.21-2.83Z"/><path d="M1012.35,166.71c1.67-1.09,3.09-2.06,4.35-3l1.47,2.26-2.73,1.9.08.11a5.07,5.07,0,0,1,5.66,1.92,3,3,0,0,1,.39.79l-2.44,1.58a4.65,4.65,0,0,0-.48-.94c-1.18-1.82-3.4-2.21-5.57-1.31a8.36,8.36,0,0,0-1.28.67l-7.57,4.92-1.66-2.55Z"/><path d="M1024.57,191.11c-5.25,3.41-9.9,1.26-12.14-2.17-2.49-3.84-1.6-8.64,2.89-11.56,4.75-3.09,9.56-1.79,12.12,2.14S1028.92,188.29,1024.57,191.11Zm-7.47-11.17c-3.11,2-4.29,5.33-2.65,7.86s5.12,2.81,8.32.73c2.41-1.57,4.68-4.75,2.69-7.81S1019.8,178.18,1017.1,179.94Z"/><path d="M1042,202.65c-1.06.61-2.25,1.3-4,2.42l-8.25,5.36c-3.25,2.12-5.67,2.77-7.8,2.19a9,9,0,0,1-5.06-4.06,10.78,10.78,0,0,1-1.89-5.48l2.38-.64a9.55,9.55,0,0,0,1.59,4.89c1.72,2.65,4.36,3.69,7.94,1.36l1.58-1,0-.06a6,6,0,0,1-5.32-3c-2.29-3.53-.93-8,3-10.55,4.81-3.13,9.58-1.76,11.7,1.5a5.64,5.64,0,0,1,.42,6l0,.06,2.22-1.28Zm-7.34,1a4.72,4.72,0,0,0,1.08-.91,4.45,4.45,0,0,0,.38-5.39c-1.6-2.46-4.83-2.87-8.12-.73-2.79,1.81-4.19,4.72-2.38,7.51a4.5,4.5,0,0,0,5,1.87,5.27,5.27,0,0,0,1.52-.7Z"/><path d="M1059.71,215.36l-17.17,11.16c-1.27.82-2.69,1.79-3.6,2.5l-1.5-2.31,2.39-1.72,0-.06a6.31,6.31,0,0,1-5.94-3c-2.23-3.44-1-8,3.27-10.77,4.71-3.1,9.52-2,11.77,1.41a5.67,5.67,0,0,1,.62,5.69l0,.06,8.49-5.51Zm-14.1,5.49a5.66,5.66,0,0,0,1-.82,4.53,4.53,0,0,0,.57-5.68c-1.73-2.67-5.11-2.73-8.25-.69-2.88,1.87-4.34,4.83-2.53,7.62a4.63,4.63,0,0,0,5.54,1.78,5.44,5.44,0,0,0,1.2-.61Z"/><path d="M1049.6,230.9c-3.46,2.33-3.44,5.5-1.77,8.08a11.35,11.35,0,0,0,3.29,3.46l-1.56,1.64a13.71,13.71,0,0,1-4-4.15c-2.84-4.38-1.66-8.86,2.62-11.64s9.3-2.46,12,1.68c3,4.64-.26,8.52-2.88,10.22a10.35,10.35,0,0,1-1.26.69Zm6.77,6.37c1.66-1,3.76-3.4,1.87-6.3-1.7-2.62-4.85-2.2-6.77-1.24Z"/><path d="M1054.38,247a8.09,8.09,0,0,0,1.19,4.07c1.22,1.88,2.73,2.15,3.9,1.39s1.43-2,.9-4.34c-.75-3.15-.12-5.27,1.58-6.37,2.29-1.49,5.37-.86,7.35,2.19a8.57,8.57,0,0,1,1.39,4.07l-2.3.57a6.64,6.64,0,0,0-1.06-3.44c-1-1.53-2.43-1.8-3.49-1.12s-1.15,2-.65,4.27c.66,3.07.25,5.14-1.86,6.51-2.5,1.62-5.52.83-7.71-2.55a9.75,9.75,0,0,1-1.63-4.62Z"/><path d="M1082.06,264.28c-1.06.61-2.25,1.3-4,2.42l-8.25,5.36c-3.25,2.12-5.67,2.77-7.8,2.19a9,9,0,0,1-5.06-4.06,10.85,10.85,0,0,1-1.89-5.49l2.38-.63a9.55,9.55,0,0,0,1.59,4.89c1.72,2.65,4.36,3.69,7.94,1.36l1.58-1,0-.06a6,6,0,0,1-5.32-3c-2.29-3.53-.93-8,3-10.55,4.81-3.13,9.58-1.76,11.7,1.5a5.62,5.62,0,0,1,.41,6l0,.06,2.22-1.28Zm-7.34,1a4.72,4.72,0,0,0,1.08-.91,4.45,4.45,0,0,0,.38-5.39c-1.6-2.46-4.83-2.87-8.12-.73-2.78,1.81-4.19,4.72-2.38,7.51a4.5,4.5,0,0,0,5,1.87,5.4,5.4,0,0,0,1.52-.7Z"/><path d="M1076.05,286.13l1.66-1.37-.06-.08a6.31,6.31,0,0,1-4.93-3,4.82,4.82,0,0,1,1.25-7c3.44-2.23,7.3-.4,10.84,5.11l.29-.19c1.18-.77,3.08-2.46,1.19-5.37a8.43,8.43,0,0,0-3.46-3l1.32-1.69a10.54,10.54,0,0,1,4.3,3.84c2.82,4.35.54,7.33-2.31,9.18l-5.31,3.45a23.3,23.3,0,0,0-3.25,2.45Zm7-5.09c-1.78-2.85-4.35-5.73-7.11-3.94a2.73,2.73,0,0,0-.89,4,4.22,4.22,0,0,0,4.61,1.89,3,3,0,0,0,.92-.39Z"/><path d="M1109.33,291.73l-17.17,11.15c-1.26.82-2.68,1.79-3.59,2.51l-1.51-2.32,2.39-1.72,0-.06a6.27,6.27,0,0,1-5.94-3c-2.23-3.44-1-8,3.28-10.77,4.7-3.1,9.52-2.05,11.77,1.41a5.66,5.66,0,0,1,.61,5.7l0,0,8.48-5.51Zm-14.1,5.48a5,5,0,0,0,1-.82,4.55,4.55,0,0,0,.58-5.68c-1.74-2.67-5.12-2.73-8.26-.68-2.87,1.87-4.34,4.82-2.52,7.61a4.63,4.63,0,0,0,5.54,1.78,5.17,5.17,0,0,0,1.19-.61Z"/><path d="M1099.22,307.27c-3.45,2.33-3.44,5.49-1.76,8.07a11.12,11.12,0,0,0,3.29,3.46l-1.56,1.64a13.59,13.59,0,0,1-4-4.15c-2.84-4.38-1.66-8.86,2.63-11.64s9.3-2.46,12,1.68c3,4.64-.27,8.52-2.88,10.22a12.62,12.62,0,0,1-1.26.7Zm6.77,6.37c1.67-1,3.76-3.41,1.87-6.31-1.69-2.61-4.84-2.19-6.77-1.24Z"/><path d="M876.69,941.74l-7.56,2-1.71-2.64L891.57,935l2,3.08-15.4,19.61-1.77-2.73,4.85-6.16Zm6.21,5.19,4.44-5.64c1-1.28,2-2.34,2.94-3.37l0-.06c-1.36.47-2.78.93-4.23,1.33L879,941Z"/><path d="M890.69,954.22c1.47-1,2.65-1.76,3.77-2.62l1.47,2.27-2.22,1.6.06.09a5.82,5.82,0,0,1,5.51,2.76,5,5,0,0,1-.23,5.87l0,.06a6.88,6.88,0,0,1,2.87.39,5.74,5.74,0,0,1,3,2.49c1.22,1.88,1.8,5.47-3.13,8.67l-8.36,5.44-1.64-2.53,8-5.23c2.73-1.77,3.72-3.83,2.37-5.92A4,4,0,0,0,898,966a4.89,4.89,0,0,0-1.43.63l-8.77,5.7-1.64-2.52,8.51-5.53c2.26-1.47,3.25-3.54,2-5.51a4.24,4.24,0,0,0-4.67-1.52,4.4,4.4,0,0,0-1.39.62L882,963.48,880.33,961Z"/><path d="M901.73,993.88l1.65-1.37,0-.08a6.34,6.34,0,0,1-4.94-3,4.83,4.83,0,0,1,1.26-7c3.43-2.23,7.29-.4,10.83,5.11l.29-.19c1.18-.77,3.08-2.46,1.19-5.37a8.37,8.37,0,0,0-3.46-3l1.32-1.69a10.48,10.48,0,0,1,4.3,3.84c2.82,4.35.54,7.33-2.3,9.18l-5.32,3.45a24.76,24.76,0,0,0-3.25,2.45Zm7-5.09c-1.77-2.85-4.35-5.73-7.11-3.94a2.73,2.73,0,0,0-.88,4,4.22,4.22,0,0,0,4.61,1.89,3.09,3.09,0,0,0,.91-.39Z"/><path d="M928.35,1003.76c-1.07.61-2.25,1.29-4,2.42l-8.25,5.36c-3.26,2.11-5.67,2.77-7.8,2.19a9,9,0,0,1-5.06-4.06,10.93,10.93,0,0,1-1.9-5.49l2.39-.63a9.55,9.55,0,0,0,1.59,4.89c1.72,2.64,4.36,3.68,7.94,1.35l1.58-1,0,0a6.07,6.07,0,0,1-5.31-3c-2.29-3.52-.94-8,3-10.55,4.81-3.12,9.58-1.76,11.7,1.5a5.62,5.62,0,0,1,.41,6l0,.06,2.22-1.27Zm-7.34,1a4.24,4.24,0,0,0,1.07-.91,4.42,4.42,0,0,0,.39-5.38c-1.6-2.47-4.83-2.88-8.12-.74-2.79,1.81-4.19,4.73-2.38,7.52a4.51,4.51,0,0,0,5,1.86,5.47,5.47,0,0,0,1.51-.69Z"/><path d="M924.8,1014.87c-3.46,2.33-3.44,5.49-1.77,8.08a11.29,11.29,0,0,0,3.29,3.45l-1.56,1.64a13.71,13.71,0,0,1-4-4.15c-2.84-4.37-1.66-8.85,2.62-11.64s9.3-2.45,12,1.69c3,4.63-.26,8.52-2.88,10.21a9.41,9.41,0,0,1-1.26.7Zm6.77,6.37c1.66-1,3.76-3.4,1.87-6.31-1.7-2.61-4.85-2.19-6.77-1.23Z"/><path d="M936.94,1026.68c1.67-1.09,3.09-2,4.36-3l1.47,2.26-2.74,1.9.08.12a5.1,5.1,0,0,1,5.67,1.91,3.84,3.84,0,0,1,.39.79l-2.44,1.59a4.65,4.65,0,0,0-.48-.94c-1.19-1.82-3.41-2.22-5.57-1.31a9.23,9.23,0,0,0-1.28.66l-7.57,4.93-1.66-2.56Z"/><path d="M933.79,1043.22c1-.58,2.48-1.45,3.74-2.27l17.17-11.16,1.66,2.55-8.92,5.8,0,.06a6.3,6.3,0,0,1,5.75,3.15c2.29,3.52,1,7.92-3.35,10.7-5.08,3.3-9.68,1.74-11.75-1.43a6,6,0,0,1-.41-6.49l-.06-.09-2.43,1.41Zm7.42-1a6.07,6.07,0,0,0-.86.72,4.76,4.76,0,0,0-.5,5.84c1.75,2.7,5,2.89,8.26.77,2.85-1.85,4.33-4.9,2.54-7.66a4.92,4.92,0,0,0-5.73-1.87,5.79,5.79,0,0,0-1.15.54Z"/><path d="M954.87,1054.27c1.67-1.09,3.09-2,4.35-3l1.47,2.26-2.73,1.9.08.12a5.08,5.08,0,0,1,5.67,1.91,3.15,3.15,0,0,1,.38.79l-2.43,1.58a5.35,5.35,0,0,0-.49-.94c-1.18-1.82-3.4-2.21-5.56-1.3a7.83,7.83,0,0,0-1.28.66l-7.58,4.92-1.66-2.55Z"/><path d="M967.1,1078.67c-5.26,3.42-9.91,1.26-12.14-2.17-2.5-3.85-1.61-8.64,2.88-11.56,4.75-3.09,9.56-1.79,12.12,2.14C972.61,1071.16,971.44,1075.85,967.1,1078.67Zm-7.48-11.17c-3.11,2-4.29,5.33-2.65,7.86s5.12,2.81,8.32.73c2.41-1.57,4.68-4.75,2.69-7.81S962.32,1065.74,959.62,1067.5Z"/><path d="M984.53,1090.21c-1.06.61-2.25,1.3-4,2.42L972.3,1098c-3.25,2.12-5.67,2.77-7.8,2.19a9,9,0,0,1-5.06-4.06,10.94,10.94,0,0,1-1.89-5.48l2.38-.64a9.63,9.63,0,0,0,1.6,4.9c1.71,2.64,4.35,3.68,7.93,1.35l1.59-1,0-.06a6,6,0,0,1-5.32-3c-2.29-3.52-.93-8,3-10.55,4.81-3.13,9.58-1.76,11.7,1.5a5.64,5.64,0,0,1,.42,6l0,.06,2.22-1.28Zm-7.34,1a4.72,4.72,0,0,0,1.08-.91,4.45,4.45,0,0,0,.38-5.39c-1.6-2.46-4.83-2.87-8.11-.73-2.79,1.81-4.2,4.72-2.38,7.51a4.49,4.49,0,0,0,5,1.87,5.53,5.53,0,0,0,1.52-.69Z"/><path d="M978.53,1112.06l1.65-1.36,0-.09a6.34,6.34,0,0,1-4.94-3,4.83,4.83,0,0,1,1.26-7c3.43-2.23,7.29-.4,10.83,5.11l.29-.19c1.18-.76,3.08-2.46,1.19-5.37a8.43,8.43,0,0,0-3.46-3l1.32-1.69a10.51,10.51,0,0,1,4.3,3.85c2.82,4.34.54,7.32-2.3,9.17L983.3,1112a25.67,25.67,0,0,0-3.25,2.45Zm7-5.09c-1.77-2.85-4.35-5.73-7.11-3.94a2.73,2.73,0,0,0-.88,4,4.22,4.22,0,0,0,4.61,1.89,2.85,2.85,0,0,0,.91-.39Z"/><path d="M1011.8,1117.66l-17.17,11.15c-1.26.83-2.68,1.79-3.59,2.51l-1.51-2.32,2.39-1.72,0-.06a6.24,6.24,0,0,1-5.93-3c-2.24-3.43-1.05-8,3.27-10.77,4.71-3.1,9.52-2.05,11.77,1.41a5.66,5.66,0,0,1,.61,5.7l0,.06,8.48-5.52Zm-14.09,5.48a5.58,5.58,0,0,0,1-.82,4.53,4.53,0,0,0,.57-5.67c-1.74-2.67-5.12-2.73-8.26-.69-2.87,1.87-4.33,4.82-2.52,7.61a4.63,4.63,0,0,0,5.54,1.78,5.17,5.17,0,0,0,1.19-.61Z"/><path d="M1001.7,1133.2c-3.46,2.33-3.45,5.49-1.77,8.07a11.12,11.12,0,0,0,3.29,3.46l-1.56,1.64a13.47,13.47,0,0,1-3.95-4.15c-2.85-4.37-1.67-8.86,2.62-11.64s9.3-2.45,12,1.69c3,4.63-.27,8.52-2.88,10.21a10.84,10.84,0,0,1-1.26.7Zm6.76,6.37c1.67-1,3.76-3.4,1.88-6.31-1.7-2.61-4.85-2.19-6.78-1.23Z"/><path class="cls-4" d="M1209.71,721a1,1,0,0,1-1.67,0l-16.3-28.23-13.22-22.89a4.52,4.52,0,0,1,3.92-6.78h52.36a4.81,4.81,0,0,1,4.17,7.22l-13,22.45Z"/><path class="cls-4" d="M1244.47,651.7c-2,21.35-15.61,36-35.7,36s-34.36-16-35.7-36,15.62-36.7,35.7-36.7S1246.35,631.7,1244.47,651.7Z"/><circle class="cls-5" cx="1208.77" cy="648.03" r="14.35"/></g></svg>