<svg xmlns="http://www.w3.org/2000/svg" width="1789" height="1165" viewBox="0 0 1789 1165"><defs><style>.cls-1{fill:#f2f2f2;stroke-width:9px;}.cls-1,.cls-2,.cls-3{stroke:#ccc;}.cls-1,.cls-2,.cls-3,.cls-6{stroke-miterlimit:10;}.cls-2,.cls-6{fill:none;}.cls-2,.cls-3{stroke-width:3px;}.cls-3,.cls-4,.cls-5{fill:red;}.cls-4{font-size:50px;letter-spacing:0.02em;}.cls-4,.cls-5{font-family:AkzidenzGrotesk-Bold, AkzidenzGrotesk;font-weight:700;}.cls-5{font-size:36px;letter-spacing:0.02em;}.cls-6{stroke:red;stroke-width:6px;}.cls-13,.cls-14,.cls-7{font-size:35px;font-family:MyriadPro-Regular, Myriad Pro;}.cls-7{letter-spacing:0.02em;}.cls-14,.cls-8{letter-spacing:0.02em;}.cls-9{letter-spacing:0.02em;}.cls-10{letter-spacing:0.02em;}.cls-11{letter-spacing:0.01em;}.cls-12,.cls-13{letter-spacing:0.02em;}.cls-15{letter-spacing:0.01em;}</style></defs><g id="omrids-2" data-name="omrids"><path class="cls-1" d="M12.5,1064.9s414-379.4,579-408.4l-406-588s-14.94-15-31.47,0S12.5,188.87,12.5,188.87Z"/><path class="cls-1" d="M158.5,1151.5,302,1018s14-16.53,20.75,0,65.49,133.53,65.49,133.53Z"/><path class="cls-1" d="M474.5,1151.5l-79-151s-28-50,8-75,226-138,226-138,53-23,87,22,225.55,342,225.55,342Z"/><path class="cls-1" d="M312.5,12.5l42,67s15,25,46,8,112-75,112-75Z"/><path class="cls-1" d="M934.5,11.5s17.25,177.14,45.13,218c23.19,34,170.87,244,192.67,281.37,4,6.87,7.41,14.09,8.34,22,1.33,11.31.4,26.52-11.53,35C1148.5,582.5,865.5,724.5,865.5,724.5s-35,17-58-15-338-511-338-511-35-44,23-76,180.37-110,180.37-110Z"/><path class="cls-1" d="M1041.46,12.5s10.6,123.13,31,164c21,42,161,239,161,239s37,46,81.52,0,299.78-403,299.78-403Z"/><path class="cls-1" d="M1571.5,316.5c14,43.39,89.41,217.42,138,327,47,106,66,166,66,166V11.5l-23.73,1-156.27,227S1560.5,282.5,1571.5,316.5Z"/><path class="cls-1" d="M1772.5,1027.5,1655.7,734.81s-5.63-20.81-29.92-9.06S1452.5,808.5,1452.5,808.5s-42.9,21.39-54,42c-7,13-7,26-4,46,2.4,16,12,37,4,41s-13,5-28-24-18-98,38-129,207-99,207-99,20.57-12,10.28-38-117.28-252-117.28-252-11.35-15-27.18,0c0,0-75.59,93.27-102.21,116.14S1238.5,625.5,1197.5,648.5,902.5,795.32,894,798.91s-40.5,10.59-20.5,38.59,211.36,314,211.36,314H1772.5Z"/></g><g id="små_streger-2" data-name="små streger"><polygon class="cls-2" points="1709.5 879.5 1736.5 946.5 1603.5 1012.5 1571.12 946.5 1709.5 879.5"/><polygon class="cls-2" points="1524.5 848.5 1671.5 782.5 1709.5 879.5 1571.12 946.5 1524.5 848.5"/><polygon class="cls-2" points="1493.78 785.5 1646.5 720.5 1671.5 782.5 1524.5 848.5 1493.78 785.5"/><polygon class="cls-2" points="1524.5 1145.57 1475.5 1045.5 1566.5 1003.5 1641.5 1145.5 1524.5 1145.57"/><polygon class="cls-2" points="1494.5 1036.5 1470.5 993.5 1528.5 969.5 1549.5 1010.5 1494.5 1036.5"/><polygon class="cls-2" points="1408.63 1145.57 1504.65 1105.06 1524.5 1145.57 1408.63 1145.57"/><polygon class="cls-2" points="1557.5 637.5 1573.5 667.5 1420.5 739.5 1364.5 614.5 1488.5 557.5 1469 513.23 1521.5 490.5 1581.5 626.5 1557.5 637.5"/><polygon class="cls-3" points="1130.5 696.5 1181.5 796.5 1287.5 742.5 1237.5 643.5 1130.5 696.5"/><polygon class="cls-3" points="1395.63 996.3 1310.37 1040.5 1189.64 792.5 1275.61 749.84 1395.63 996.3"/><polygon class="cls-3" points="1304.5 1043.5 1410.5 988.5 1453.5 1078.5 1350.5 1134.5 1304.5 1043.5"/><polygon class="cls-2" points="1120.33 1145.57 901.82 794.5 945.5 775.5 1051.68 848.5 1091.5 912.5 1109.5 914.5 1152.24 991.5 1148.5 1010.5 1176.5 1052.5 1194.5 1045.5 1212.18 1074.53 1200.5 1085.5 1234.42 1145.57 1120.33 1145.57"/><polygon class="cls-2" points="1169.11 899.38 1229.5 1024.5 1275.03 1003.5 1216.5 878.5 1169.11 899.38"/><polygon class="cls-2" points="948.5 777.5 1125.5 687.5 1169.5 775.5 1137.5 791.5 1144.5 803.5 1108.5 818.5 1100.5 805.5 1031.47 834.6 948.5 777.5"/><polygon class="cls-2" points="1236.5 1114.5 1304.5 1077.5 1331.92 1129.5 1291.02 1151.5 1257.5 1151.5 1236.5 1114.5"/></g><g id="tekstt"><text class="cls-4" transform="translate(1293.11 697.49)">ZeBU</text><text class="cls-5" transform="translate(852.36 844.52)">BUS 5C</text><line class="cls-6" x1="915.88" y1="855.18" x2="886.37" y2="894.1"/><line class="cls-6" x1="916.46" y1="894.02" x2="886.37" y2="855.1"/><text class="cls-7" transform="matrix(0.54, 0.84, -0.84, 0.54, 425.31, 291.53)">A<tspan class="cls-8" x="22.02" y="0">mage</tspan><tspan class="cls-9" x="107.97" y="0">r</tspan><tspan class="cls-10" x="120.26" y="0">b</tspan><tspan class="cls-11" x="140.87" y="0">r</tspan><tspan class="cls-12" x="152.67" y="0">ogade</tspan></text><text class="cls-13" transform="translate(247.44 969.55) rotate(-38.85)">Englands<tspan class="cls-11" x="139.96" y="0">v</tspan><tspan x="157.15" y="0">ej</tspan></text><text class="cls-14" transform="translate(1220.14 588.12) rotate(-38.85)">Ø<tspan class="cls-15" x="24.81" y="0">r</tspan><tspan x="36.61" y="0">esunds</tspan><tspan class="cls-11" x="144.51" y="0">v</tspan><tspan class="cls-12" x="161.7" y="0">ej</tspan></text><text class="cls-13" transform="translate(988.13 150.79) rotate(56.98)">D<tspan class="cls-11" x="24.01" y="0">r</tspan><tspan x="35.8" y="0">ogdesgade</tspan></text><text class="cls-7" transform="matrix(0.54, 0.84, -0.84, 0.54, 866.96, 940.36)">A<tspan class="cls-8" x="22.02" y="0">mage</tspan><tspan class="cls-9" x="107.97" y="0">r</tspan><tspan class="cls-10" x="120.26" y="0">b</tspan><tspan class="cls-11" x="140.87" y="0">r</tspan><tspan class="cls-12" x="152.67" y="0">ogade</tspan></text></g></svg>