<svg id="Layer_1" data-name="Layer 1" xmlns="http://www.w3.org/2000/svg" width="341" height="477" viewBox="0 0 341 477"><defs><style>.cls-1,.cls-10,.cls-2,.cls-3,.cls-4,.cls-5,.cls-6,.cls-7,.cls-8,.cls-9{fill:none;stroke:#f0f;stroke-miterlimit:10;stroke-width:5px;}.cls-1{opacity:0.2;}.cls-2{opacity:0.29;}.cls-3{opacity:0.38;}.cls-4{opacity:0.47;}.cls-5{opacity:0.56;}.cls-6{opacity:0.64;}.cls-7{opacity:0.73;}.cls-8{opacity:0.82;}.cls-9{opacity:0.91;}</style></defs><path class="cls-1" d="M241.93,28.42c-105,127-123,281.08-97.69,311.79,28,34,190.16-35,180-4.6-33,99,60.22,154.89,10.22,242.89C316.79,609.67,54.24,670.21,14.24,686.21c-77.06,30.82,170.88,108.36,258,195"/><path class="cls-2" d="M247.41,26.22c-30.19,32.38-62.65,75.28-80.62,110.36-9.22,18-21,35.08-26.88,52.74-8.26,24.83-7.61,50.45-9.27,71.51-2.74,34.87-5,64.67.63,78.57,3.42,8.45,12.61,12.43,26.08,13.51,23,1.86,61.31-7.23,87.9-10.54,35.65-4.43,69.88-9.33,68,3.47-13.16,91,66.37,142.37,26.24,227-11.61,24.51-129.08,62-216.7,83.29-42.69,10.38-78.11,20.4-91.17,26.16-8.09,3.56-12.49,7.5-13.67,11.89-9.33,34.72,182.2,116.29,255.6,188.12"/><path class="cls-3" d="M252.9,24c-30.36,28.44-72.43,75.7-91.49,108.64-10,17.35-26.66,33.18-33,51-8.7,24.75-2.49,52.58-3.23,74.19-1.12,32.55-8.84,64.17-6.93,80.78,1.14,9.88,8.13,15.31,20.67,17.37,22.29,3.67,67-7.64,92-8.1,33.18-.6,70.34-3.76,71.28,8.21,6.38,81.49,74.17,131.07,42.26,211.17-11.23,28.21-122.76,68.48-206.67,86-41.39,8.67-75.69,18.8-88.82,25.13-7.67,3.7-11.93,7.63-13,11.91-8.67,33.26,169.61,126.53,238.89,193.11"/><path class="cls-4" d="M258.38,21.82C227.85,46.31,176.12,97.93,156,128.74c-10.9,16.7-32.33,31.28-39,49.15-9.16,24.68,2.56,54.68,2.8,76.89.32,30.19-12.6,63.64-14.48,83C104.22,349.06,109,356,120.57,359c21.65,5.56,72.61-8.1,96.18-5.66,30.65,3.17,70.62,1.57,74.53,12.95,24.27,70.7,83.29,120.55,58.29,195.31-10.74,32.12-116.47,74.95-196.64,88.82-40.12,7-73.29,17.17-86.47,24.11-7.27,3.82-11.37,7.76-12.41,11.93-7.94,31.81,157,136.76,222.19,198.09"/><path class="cls-5" d="M263.86,19.62c-30.69,20.55-92.15,76.49-113.23,105.2-11.77,16-38,29.37-45.08,47.36-9.62,24.59,7.53,56.75,8.83,79.57,1.58,27.81-16.3,63.13-22,85.21-3.29,12.7-.8,21.23,9.85,25.06,21,7.57,78.2-8.61,100.31-3.21,28.08,6.86,70.57,6.86,77.78,17.69C320.09,436.35,373.7,487,354.59,556c-10,36.16-110.18,81.36-186.61,91.59-38.84,5.19-70.89,15.51-84.12,23.07-6.86,3.92-10.81,7.89-11.78,12-7.26,30.35,144.46,147,205.5,203.08"/><path class="cls-6" d="M269.34,17.42C238.48,34,167.24,94.27,145.25,120.9c-12.68,15.35-43.66,27.47-51.16,45.57C84,191,106.5,225.28,109,248.72c2.67,25.42-20,62.66-29.59,87.43-5.49,14.13-5.28,24.3,4.43,28.91,20.37,9.69,83.79-9.21,104.45-.77,25.5,10.42,70.24,12.38,81,22.43,53.86,50.2,104.34,100.7,90.33,163.6-9,40.32-103.91,87.73-176.58,94.36-37.57,3.42-68.51,13.83-81.77,22-6.47,4-10.24,8-11.15,12C83.52,707.58,222,835.93,278.91,886.76"/><path class="cls-7" d="M274.83,15.22c-31,12.66-112.1,77.15-135,101.76-13.62,14.64-49.33,25.57-57.22,43.77-10.52,24.43,17.13,60.9,20.9,84.94,3.61,23.05-23.63,62.2-37.15,89.65-7.66,15.57-9.78,27.42-1,32.76C85.07,380,154.84,358.19,174,369.77,197,383.65,243.82,388,258.28,397c67.72,42,115.87,91,106.35,147.74-7.47,44.56-97.65,94-166.54,97.12-36.31,1.62-66.15,12.12-79.42,21-6.09,4.08-9.69,8.14-10.52,12-5.93,27.41,119.29,167.46,172.09,213"/><path class="cls-8" d="M280.31,13c-31.2,8.72-122.13,77.41-145.84,100-14.57,13.9-55,23.67-63.29,42-11,24.35,21.69,63,26.94,87.63,4.41,20.71-27.29,61.75-44.7,91.86-9.85,17-14.33,30.59-6.4,36.6,18.85,14.3,95.14-10.66,112.73,4.12,20.54,17.26,69.46,24.28,87.53,31.92,82.11,34.7,127.88,81.3,122.38,131.88-5.32,48.86-91.39,100.29-156.52,99.89-35-.21-63.81,10.37-77.07,20-5.71,4.14-9.13,8.27-9.89,12-5.28,25.95,106.71,177.71,155.4,218"/><path class="cls-9" d="M285.79,10.81c-31.36,4.79-132.18,77.63-156.7,98.33-15.56,13.13-60.66,21.77-69.36,40.19-11.43,24.27,26,65.22,33,90.31,5.11,18.44-30.89,61.36-52.26,94.08-12,18.51-18.93,33.77-11.81,40.45,17.88,16.75,101-11.45,116.86,6.56,18.23,20.62,69.21,30.46,90.79,36.66,97.16,27.92,140.27,71.41,138.4,116-2.23,53.1-85.11,106.46-146.49,102.65-33.76-2.09-61.5,8.6-74.71,19-5.35,4.2-8.58,8.4-9.27,12.05-4.67,24.47,94.13,187.94,138.7,223"/><path class="cls-10" d="M291.28,8.61C259.74,9.46,149,86.39,123.7,105.22c-16.56,12.31-66.33,19.87-75.42,38.39-11.88,24.19,30.05,67.58,39,93s-94.72,120.26-77,140.6c16.75,19.25,106.85-12.23,121,9,16,24,69,36.67,94,41.4,278,52.6,115,217.6,18,205.6-44.83-5.55-78.76,17.15-81,30-4,23,81.55,198.17,122,228"/></svg>