<svg xmlns="http://www.w3.org/2000/svg" width="1794" height="1175" viewBox="0 0 1794 1175"><defs><style>.cls-1{fill:#f2f2f2;stroke-width:8px;}.cls-1,.cls-3,.cls-4{stroke:#ccc;}.cls-1,.cls-3,.cls-4,.cls-6{stroke-miterlimit:10;}.cls-2{fill:#9fc2ff;}.cls-21,.cls-22,.cls-3,.cls-5{fill:red;}.cls-3,.cls-4{stroke-width:3px;}.cls-4,.cls-6{fill:none;}.cls-6{stroke:red;stroke-width:6px;}.cls-10,.cls-12,.cls-16,.cls-19,.cls-23,.cls-25,.cls-7{font-size:35px;font-family:MyriadPro-Regular, Myriad Pro;}.cls-7{letter-spacing:0.01em;}.cls-23,.cls-8{letter-spacing:0.02em;}.cls-9{letter-spacing:0.02em;}.cls-10{letter-spacing:0.03em;}.cls-11{letter-spacing:0.01em;}.cls-12{letter-spacing:-0.01em;}.cls-13{letter-spacing:0.02em;}.cls-14{letter-spacing:0.02em;}.cls-15{letter-spacing:0.04em;}.cls-16{letter-spacing:0.02em;}.cls-17{letter-spacing:0.01em;}.cls-18{letter-spacing:0.02em;}.cls-19{letter-spacing:0.03em;}.cls-20{letter-spacing:0.01em;}.cls-21{font-size:48px;letter-spacing:0.02em;}.cls-21,.cls-22{font-family:AkzidenzGrotesk-Bold, AkzidenzGrotesk;font-weight:700;}.cls-22{font-size:36px;letter-spacing:0.02em;}.cls-24{letter-spacing:0.01em;}.cls-25{letter-spacing:0.03em;}</style></defs><g id="omrids"><path class="cls-1" d="M553.5,24.5l210,444s17,31,45,18,652.57-387,690.78-462Z"/><path class="cls-1" d="M1773.5,169.5l-548,617s-130,149-246,13S838,604,838,604s-27-26,10-49,182-103,268-158S1586,93,1605,20l174.5-.5Z"/><polygon class="cls-1" points="259.5 23.5 18.5 174.5 18.5 19.5 259.5 23.5"/><path class="cls-1" d="M18.5,282.54s305-199,314-203,94.61-55,94.61-55l177.39,362s26,61-11,83-432,288-432,288-17.49,16-29.74,0S18.5,630,18.5,630Z"/><path class="cls-1" d="M18.5,1003.06l652-435.56s26-21,47,14,381.8,578,381.8,578H16.5Z"/><path class="cls-2" d="M1771.5,416.5s-355,378-385,421S1285,961.63,1299.75,1076.07l48.75,77.43h55.17l160.83-105-35-60,242-266.93Z"/><path class="cls-1" d="M1567.38,1047s67.08-39,84.78-57S1768,855.27,1768,855.27V721L1530.84,989.45Z"/><polygon class="cls-1" points="1590 1161 1778 1035 1777.5 1159.5 1590 1161"/></g><g id="små_streger" data-name="små streger"><polygon class="cls-3" points="612.5 156.5 801.5 67.5 837.5 144.5 758.5 180.5 746.5 246.5 770.5 299.5 697.5 335.5 612.5 156.5"/><polygon class="cls-4" points="612.71 156.98 585.5 95.5 705.5 38.5 733.71 99.98 612.71 156.98"/><polygon class="cls-4" points="608.5 23.5 630.5 73.5 584.5 95.5 552.96 23.5 608.5 23.5"/><path class="cls-4" d="M890.5,233.5s-50-80-93-177L853,26.1c10.18-5.57,68.11-4.52,75.53,4.4l150,219-107,63-25-41-47,27-33-52Z"/><polygon class="cls-4" points="887.5 280.5 791.5 332.5 801.5 352.5 724.5 391.5 697.5 335.5 866.5 246.5 887.5 280.5"/><path class="cls-4" d="M724.5,391.5,764.85,473a31,31,0,0,0,41.31,14.13L846.5,467.5l-56-109Z"/><path class="cls-4" d="M846.5,466l57.38-34.62a4,4,0,0,0,1.61-5.45l-57-98.45-58,31Z"/><polygon class="cls-4" points="908.5 431.19 957.5 399.5 900.5 298.5 848.5 327.5 908.5 431.19"/><polygon class="cls-4" points="957.5 399.5 1005.5 368.5 971.82 311.99 923.5 339.5 957.5 399.5"/><polygon class="cls-4" points="949.5 62.5 1007.5 34.5 1127.8 201.5 1159.5 184.5 1206.5 242.5 1115.5 303.5 949.5 62.5"/><polygon class="cls-4" points="1206.5 242.5 1289.5 190.5 1217.5 91.5 1193.5 107.5 1129.5 26.5 1037.5 26.5 1157.5 180.5 1206.5 242.5"/><polygon class="cls-4" points="1231.5 110.5 1303.5 60.5 1366.5 133.5 1289.5 190.02 1231.5 110.5"/><polygon class="cls-4" points="1273.5 25.5 1366.5 133.5 1456.5 68.5 1419.52 22.5 1273.5 25.5"/><polygon class="cls-3" points="435.5 1005.5 394.5 942.5 409.5 933.5 389.5 898.5 342.5 926.5 277.94 827.63 443.5 714.5 511.5 816.5 460.5 845.5 518.5 952.5 435.5 1005.5"/><polygon class="cls-4" points="339.5 928.5 280.5 965.5 347.5 1068.5 388.5 1039.5 361.64 998.5 391.89 980.52 368.5 944.5 387.5 932.5 372.5 909.5 339.5 928.5"/><polygon class="cls-4" points="289.5 959.5 224.5 865.5 277.94 829.56 341.5 927.5 289.5 959.5"/><polygon class="cls-4" points="289.31 959.5 233.5 998.5 166.5 901.5 223.5 863.5 289.31 959.5"/><polygon class="cls-4" points="234.5 1000.5 241.5 1009.5 195.5 1040.5 174.5 1010.5 123.38 1044.57 196.5 1159.5 110.5 1159.5 84.5 1118.5 18.5 1155.5 18.5 1002.5 166.5 901.5 234.5 1000.5"/><polygon class="cls-4" points="512.5 818.5 548.5 873.5 597.51 843.12 558.5 779.5 611.5 745.5 546.5 648.5 445.5 712.5 512.5 818.5"/><path class="cls-4" d="M611.5,745.5l60-38,60,96,88-58L703.58,565.92c-3.37-5.22-19.82-5.73-25.08-2.42l-132,85Z"/><polygon class="cls-4" points="944.5 930.5 698.5 1097.5 659.5 1034.5 793.5 944.5 746.63 871.5 588.5 976.5 551.5 918.5 819.5 745.5 944.5 930.5"/><polygon class="cls-4" points="519.5 1013.5 564.5 1083.5 607.5 1088.5 667.88 1048.04 698.5 1097.5 612.96 1155.5 462.96 1155.5 383.5 1042.5 518.5 952.5 545.5 995.5 519.5 1013.5"/><polygon class="cls-4" points="438.5 1159.5 313.5 1159.5 283.46 1115.78 367.5 1054.5 438.5 1159.5"/><path class="cls-5" d="M857.1,101.09h6.3l7.07,25.56h.09l7.06-25.56h6.3l-9.36,32h-8.1Z"/><path class="cls-5" d="M901.88,100.28a14.77,14.77,0,0,1,6.43,1.35,14.35,14.35,0,0,1,4.82,3.67,16.52,16.52,0,0,1,3,5.38,20.24,20.24,0,0,1,0,12.87,16.47,16.47,0,0,1-3,5.37,14.35,14.35,0,0,1-4.82,3.67,16,16,0,0,1-12.87,0,14.31,14.31,0,0,1-4.81-3.67,16.29,16.29,0,0,1-3-5.37,20.06,20.06,0,0,1,0-12.87,16.34,16.34,0,0,1,3-5.38,14.31,14.31,0,0,1,4.81-3.67A14.81,14.81,0,0,1,901.88,100.28Zm0,5.58a8.16,8.16,0,0,0-4.1,1,8.42,8.42,0,0,0-2.81,2.56,11.5,11.5,0,0,0-1.62,3.63,16.46,16.46,0,0,0,0,8.21,11.54,11.54,0,0,0,1.62,3.6,8.42,8.42,0,0,0,2.81,2.56,9.13,9.13,0,0,0,8.19,0,8.45,8.45,0,0,0,2.82-2.56,11.54,11.54,0,0,0,1.62-3.6,16.78,16.78,0,0,0,0-8.21,11.5,11.5,0,0,0-1.62-3.63,8.45,8.45,0,0,0-2.82-2.56A8.12,8.12,0,0,0,901.88,105.86Z"/><path class="cls-5" d="M930.86,115.81l-9.14-14.72h7l5.76,9.27,5.76-9.27h7l-9.13,14.72,10.71,17.32h-6.93l-7.38-11.92-7.38,11.92h-6.93Z"/><path class="cls-5" d="M983.1,123.19a4.85,4.85,0,0,0,.74-1.15,13.31,13.31,0,0,0,.59-1.42,14.13,14.13,0,0,0,.4-1.39,4.75,4.75,0,0,0,.16-1.08h5a9.32,9.32,0,0,1-.2,1.48,17,17,0,0,1-.65,2.34,19.4,19.4,0,0,1-1.19,2.7,10.55,10.55,0,0,1-1.83,2.48,11.88,11.88,0,0,0,1.51,1.12,2.64,2.64,0,0,0,1.37.36,6.44,6.44,0,0,0,1.35-.13v4.36a11.08,11.08,0,0,1-2.65.27,9.84,9.84,0,0,1-2.79-.36,5.76,5.76,0,0,1-2.39-1.53A17.45,17.45,0,0,1,979,133a12.44,12.44,0,0,1-4.28.7,12.17,12.17,0,0,1-4-.63,9.36,9.36,0,0,1-3.19-1.82,8.62,8.62,0,0,1-2.14-2.9,9.36,9.36,0,0,1-.79-3.92,7.91,7.91,0,0,1,.59-3,10.83,10.83,0,0,1,1.53-2.64,13.79,13.79,0,0,1,2.16-2.16,13.61,13.61,0,0,1,2.52-1.59,17.52,17.52,0,0,1-1-2,6.65,6.65,0,0,1-.54-2.68,7.54,7.54,0,0,1,.61-3,7,7,0,0,1,1.69-2.36,7.67,7.67,0,0,1,2.52-1.53,8.74,8.74,0,0,1,3.1-.54,8.41,8.41,0,0,1,3,.5,6.61,6.61,0,0,1,2.27,1.39,6.29,6.29,0,0,1,1.47,2.14,7,7,0,0,1,.51,2.72,7.16,7.16,0,0,1-.45,2.66,6.51,6.51,0,0,1-1.26,2,8.79,8.79,0,0,1-1.91,1.53,21.67,21.67,0,0,1-2.36,1.19Zm-9-4a5.72,5.72,0,0,0-2.81,1.86,4.86,4.86,0,0,0-1.15,3.18,5,5,0,0,0,.41,2.07,4,4,0,0,0,1.1,1.48,4.89,4.89,0,0,0,1.6.88,6,6,0,0,0,1.84.29,5.8,5.8,0,0,0,2.48-.52,7,7,0,0,0,1.93-1.28ZM977.75,107a2.08,2.08,0,0,0-1.83.81,2.93,2.93,0,0,0-.56,1.67,3.77,3.77,0,0,0,.43,1.89,10.77,10.77,0,0,0,1,1.48,5.65,5.65,0,0,0,2.32-1,2.65,2.65,0,0,0,1.1-2.25,2.6,2.6,0,0,0-.67-1.85A2.35,2.35,0,0,0,977.75,107Z"/><path class="cls-5" d="M1017,115.81l-9.14-14.72h7l5.76,9.27,5.76-9.27h7l-9.13,14.72,10.71,17.32H1028l-7.38-11.92-7.38,11.92h-6.93Z"/><path class="cls-5" d="M1039,101.09h22.68v5.58H1045V114h15.3v5.31H1045v8.28h17.82v5.58H1039Z"/><path class="cls-5" d="M1067.61,101.09h5.54l13.45,22.82h.09V101.09h5.49v32h-5.53l-13.46-22.81h-.09v22.81h-5.49Z"/><path class="cls-5" d="M1113.33,100.28a14.81,14.81,0,0,1,6.44,1.35,14.31,14.31,0,0,1,4.81,3.67,16.52,16.52,0,0,1,3,5.38,20.06,20.06,0,0,1,0,12.87,16.47,16.47,0,0,1-3,5.37,14.31,14.31,0,0,1-4.81,3.67,16,16,0,0,1-12.87,0,14.35,14.35,0,0,1-4.82-3.67,16.47,16.47,0,0,1-3-5.37,20.24,20.24,0,0,1,0-12.87,16.52,16.52,0,0,1,3-5.38,14.35,14.35,0,0,1,4.82-3.67A14.77,14.77,0,0,1,1113.33,100.28Zm0,5.58a8.12,8.12,0,0,0-4.09,1,8.45,8.45,0,0,0-2.82,2.56,11.5,11.5,0,0,0-1.62,3.63,16.78,16.78,0,0,0,0,8.21,11.54,11.54,0,0,0,1.62,3.6,8.45,8.45,0,0,0,2.82,2.56,9.13,9.13,0,0,0,8.19,0,8.42,8.42,0,0,0,2.81-2.56,11.54,11.54,0,0,0,1.62-3.6,16.46,16.46,0,0,0,0-8.21,11.5,11.5,0,0,0-1.62-3.63,8.42,8.42,0,0,0-2.81-2.56A8.16,8.16,0,0,0,1113.33,105.86Z"/><path class="cls-5" d="M1134.48,101.09H1140l13.45,22.82h.09V101.09h5.49v32h-5.53l-13.46-22.81H1140v22.81h-5.49Z"/><path class="cls-5" d="M866.24,160.67h-8.78v-5.58H881v5.58h-8.77v26.46h-6Z"/><path class="cls-5" d="M885.18,155.09h22.68v5.58H891.21V168h15.3v5.31h-15.3v8.28H909v5.58H885.18Z"/><path class="cls-5" d="M921.32,155.09h7l10.71,32h-6.3l-1.85-6.21H918.75l-1.84,6.21h-6.3Zm3.55,5.85h-.09l-4.41,14.67h8.91Z"/><path class="cls-5" d="M946.52,160.67h-8.78v-5.58h23.58v5.58h-8.77v26.46h-6Z"/><path class="cls-5" d="M965.46,155.09h22.68v5.58H971.49V168h15.3v5.31h-15.3v8.28h17.82v5.58H965.46Z"/><path class="cls-5" d="M993.86,155.09h13.36a13.49,13.49,0,0,1,4.57.72,9.7,9.7,0,0,1,3.37,2,8.86,8.86,0,0,1,2.12,3.06,10.15,10.15,0,0,1,.74,3.9,10.68,10.68,0,0,1-.79,4.43,9.31,9.31,0,0,1-1.82,2.77,7.57,7.57,0,0,1-2.09,1.53c-.71.33-1.25.57-1.64.72l7.15,12.91h-7l-6.21-11.79h-5.76v11.79h-6Zm6,14.94h6.57a5.64,5.64,0,0,0,3.78-1.26,4.91,4.91,0,0,0,0-7.06,7,7,0,0,0-4.65-1.31h-5.67Z"/><path class="cls-5" d="M1023.11,155.09h6v12h13.77v-12h6v32h-6V172.69h-13.77v14.44h-6Z"/><path class="cls-5" d="M1081.52,177.28a10.25,10.25,0,0,1-.93,4.41,9.38,9.38,0,0,1-2.63,3.37,12.14,12.14,0,0,1-4.09,2.14,19.21,19.21,0,0,1-10.56,0,12.24,12.24,0,0,1-4.07-2.14,9.38,9.38,0,0,1-2.63-3.37,10.24,10.24,0,0,1-.92-4.41V155.09h6V175.7a9.83,9.83,0,0,0,.33,2.66,4.76,4.76,0,0,0,1.15,2,5.38,5.38,0,0,0,2.12,1.28,12.11,12.11,0,0,0,6.54,0,5.32,5.32,0,0,0,2.14-1.28,4.76,4.76,0,0,0,1.15-2,9.81,9.81,0,0,0,.34-2.66V155.09h6Z"/><path class="cls-5" d="M1090.47,177.5a10.37,10.37,0,0,0,4.21,3.69,12.72,12.72,0,0,0,5.47,1.17,14.48,14.48,0,0,0,2.29-.2,8.28,8.28,0,0,0,2.21-.68,4.68,4.68,0,0,0,1.64-1.26,3,3,0,0,0,.65-1.95,2.72,2.72,0,0,0-.43-1.58,3.52,3.52,0,0,0-1.28-1.1,10.12,10.12,0,0,0-2.07-.83c-.81-.24-1.75-.48-2.83-.72l-3.56-.81a32.15,32.15,0,0,1-3.67-1.08,11.5,11.5,0,0,1-3.06-1.65,7.38,7.38,0,0,1-2.11-2.52,7.86,7.86,0,0,1-.79-3.71,8.64,8.64,0,0,1,1.1-4.41,10,10,0,0,1,2.86-3.13,12.63,12.63,0,0,1,4-1.84,16.79,16.79,0,0,1,4.48-.61,17.67,17.67,0,0,1,7.49,1.55,15.63,15.63,0,0,1,5.88,4.89l-5,3.78a8.33,8.33,0,0,0-3.31-3.42,10.13,10.13,0,0,0-5.1-1.22,9.28,9.28,0,0,0-4.35.92,2.89,2.89,0,0,0-1.73,2.64,2.54,2.54,0,0,0,.52,1.64,4,4,0,0,0,1.44,1.1,10.21,10.21,0,0,0,2.11.74l2.55.61,3.91.86a27.31,27.31,0,0,1,3.47,1,10.33,10.33,0,0,1,2.94,1.62,7.45,7.45,0,0,1,2.07,2.56,8.41,8.41,0,0,1,.79,3.85,9.19,9.19,0,0,1-1.26,5,10,10,0,0,1-3.26,3.26,14.1,14.1,0,0,1-4.52,1.78,23.83,23.83,0,0,1-5,.54,18.4,18.4,0,0,1-4-.43,17.35,17.35,0,0,1-3.8-1.28,16.79,16.79,0,0,1-3.4-2.11,13.19,13.19,0,0,1-2.7-2.93Z"/><line class="cls-6" x1="1644.75" y1="914.08" x2="1615.23" y2="953"/><line class="cls-6" x1="1645.32" y1="952.92" x2="1615.23" y2="914"/></g><g id="tekst"><text class="cls-7" transform="translate(315.57 745.25) rotate(-33.91)">L<tspan class="cls-8" x="16.73" y="0">øngangsst</tspan><tspan class="cls-9" x="176.4" y="0">r</tspan><tspan class="cls-8" x="188.37" y="0">æde</tspan></text><text class="cls-10" transform="matrix(0.67, -0.74, 0.74, 0.67, 1323.11, 784.88)">N<tspan class="cls-8" x="24.04" y="0">yb</tspan><tspan class="cls-11" x="61.84" y="0">r</tspan><tspan class="cls-8" x="73.64" y="0">ogade</tspan></text><text class="cls-12" transform="translate(923.63 812.37) rotate(53.35)">F<tspan class="cls-11" x="16.84" y="0">r</tspan><tspan class="cls-13" x="28.63" y="0">ede</tspan><tspan class="cls-14" x="85.54" y="0">r</tspan><tspan class="cls-8" x="97.82" y="0">iksholms </tspan><tspan class="cls-15" x="239.96" y="0">K</tspan><tspan class="cls-13" x="260.19" y="0">anal</tspan></text><text class="cls-16" transform="translate(1569.78 1129.83) rotate(-33.91)">S<tspan class="cls-17" x="17.85" y="0">t</tspan><tspan class="cls-8" x="29.92" y="0">o</tspan><tspan class="cls-18" x="49.84" y="0">r</tspan><tspan class="cls-13" x="62.12" y="0">mb</tspan><tspan class="cls-11" x="112.63" y="0">r</tspan><tspan class="cls-8" x="124.42" y="0">oen</tspan></text><text class="cls-19" transform="matrix(0.83, -0.56, 0.56, 0.83, 1113.11, 364.62)">M<tspan class="cls-13" x="29.05" y="0">agst</tspan><tspan class="cls-20" x="93.73" y="0">r</tspan><tspan class="cls-8" x="105.7" y="0">æde</tspan></text><text class="cls-21" transform="translate(503.72 883.57)">DOWNUNDER</text><text class="cls-22" transform="translate(1573.25 894.99)">BUS 2A</text><text class="cls-23" transform="matrix(0.85, -0.53, 0.53, 0.85, 77.92, 201.37)">Kompa<tspan class="cls-24" x="107.66" y="0">g</tspan><tspan x="127.71" y="0">nist</tspan><tspan class="cls-20" x="183.57" y="0">r</tspan><tspan x="195.54" y="0">æde</tspan></text><text class="cls-25" transform="matrix(0.44, 0.9, -0.9, 0.44, 509.65, 100.54)">R<tspan class="cls-8" x="19.95" y="0">ådhusst</tspan><tspan class="cls-20" x="139.47" y="0">r</tspan><tspan class="cls-8" x="151.44" y="0">æde</tspan></text></g></svg>