<?xml version="1.0" encoding="utf-8"?>
<!-- Generator: Adobe Illustrator 27.2.0, SVG Export Plug-In . SVG Version: 6.00 Build 0)  -->
<svg version="1.1" id="Layer_1" xmlns="http://www.w3.org/2000/svg" xmlns:xlink="http://www.w3.org/1999/xlink" x="0px" y="0px"
	 viewBox="0 0 175 250" style="enable-background:new 0 0 175 250;" xml:space="preserve">
<style type="text/css">
	.st0{opacity:0.2;fill:none;stroke:#FF00FF;stroke-width:2;stroke-miterlimit:10;enable-background:new    ;}
	.st1{opacity:0.29;fill:none;stroke:#FF00FF;stroke-width:2;stroke-miterlimit:10;enable-background:new    ;}
	.st2{opacity:0.38;fill:none;stroke:#FF00FF;stroke-width:2;stroke-miterlimit:10;enable-background:new    ;}
	.st3{opacity:0.47;fill:none;stroke:#FF00FF;stroke-width:2;stroke-miterlimit:10;enable-background:new    ;}
	.st4{opacity:0.56;fill:none;stroke:#FF00FF;stroke-width:2;stroke-miterlimit:10;enable-background:new    ;}
	.st5{opacity:0.64;fill:none;stroke:#FF00FF;stroke-width:2;stroke-miterlimit:10;enable-background:new    ;}
	.st6{opacity:0.73;fill:none;stroke:#FF00FF;stroke-width:2;stroke-miterlimit:10;enable-background:new    ;}
	.st7{opacity:0.82;fill:none;stroke:#FF00FF;stroke-width:2;stroke-miterlimit:10;enable-background:new    ;}
	.st8{opacity:0.91;fill:none;stroke:#FF00FF;stroke-width:2;stroke-miterlimit:10;enable-background:new    ;}
	.st9{fill:none;stroke:#FF00FF;stroke-width:2;stroke-miterlimit:10;}
</style>
<path class="st0" d="M103.5,5.6c-32.7,36-38.3,79.6-30.4,88.3c8.7,9.6,59.2-11,56-2.4c-10.3,28-28.3,72.7-64.1,68.1
	c-11-1.4-19.9,27.8-32.4,32.3c-24,8.7,53.2,30.7,80.3,55.2"/>
<path class="st1" d="M105.2,5c-9.4,9.2-19.5,21.3-25.1,31.3c-2.9,5.1-6.5,9.9-8.4,14.9c-2.6,7-2.4,14.3-2.9,20.3
	c-0.8,9.9-1.5,18.3,0.2,22.2c1.1,2.4,4,3.5,8.2,3.7c7.1,0.4,19-2.3,27.3-3.4c11.1-1.5,21.5-3.1,21.2,0.5
	c-2.6,26.1-19.2,68.2-53.4,66.3c-7.4-0.4-14,11-21.3,19.6c-3.8,4.5-7.8,8.5-12.1,10c-6.7,2.4-6,5.9-0.6,10.1
	c13.5,10.5,56.4,30.5,75,47"/>
<path class="st2" d="M106.9,4.4c-9.5,8.1-22.5,21.5-28.5,30.8c-3.1,4.9-8.3,9.4-10.3,14.4c-2.7,7-0.8,14.9-1,21
	c-0.3,9.2-2.7,18.1-2.1,22.8c0.4,2.8,2.6,4.3,6.5,4.8c6.9,0.9,20.8-2.4,28.6-2.7c10.3-0.4,21.4-1.4,22.2,1.9
	c5.2,24.3-10.1,63.9-42.7,64.4c-7.5,0.1-14.4,10.7-21.9,18c-4,3.9-8.2,7.4-12.4,8.9c-6.7,2.3-6.5,5.8-1.8,9.7
	c11.7,9.9,52.5,33.7,70.4,49.2"/>
<path class="st3" d="M108.6,3.7C99.1,10.7,83,25.3,76.8,34c-3.4,4.7-10.1,8.9-12.1,13.9c-2.8,7,0.8,15.5,0.9,21.8
	c0.1,8.5-3.9,18-4.5,23.5c-0.3,3.2,1.2,5.2,4.8,5.9c6.7,1.5,22.6-2.5,29.9-1.9c9.5,0.7,21.4,0.3,23.2,3.3
	c13.2,22.7-1.2,59.8-32.1,62.5c-7.6,0.7-14.9,10.4-22.5,16.4c-4.2,3.3-8.5,6.4-12.7,7.8c-6.6,2.3-7,5.7-3.1,9.4
	c9.9,9.4,48.6,36.9,65.7,51.4"/>
<path class="st4" d="M110.3,3.1C100.8,9,81.7,24.8,75.1,32.9c-3.7,4.5-11.8,8.3-14,13.4c-3,7,2.3,16.1,2.8,22.5
	c0.5,7.9-5,17.8-6.8,24.1c-1,3.6-0.2,6,3.1,7.1c6.5,2.1,24.3-2.6,31.2-1.2c8.7,1.8,21.4,2,24.2,4.7c21.4,21,7.7,55.8-21.4,60.7
	c-7.8,1.3-15.4,10.1-23.2,14.9c-4.4,2.7-8.9,5.3-13.1,6.7c-6.5,2.2-7.5,5.6-4.3,9c8.1,8.9,44.7,40.1,61.1,53.6"/>
<path class="st5" d="M112,2.5c-9.6,4.7-31.8,21.8-38.6,29.3c-3.9,4.4-13.6,7.8-15.9,12.9c-3.1,6.9,3.9,16.7,4.6,23.3
	C63,75.2,56,85.7,53,92.7c-1.7,4-1.7,6.9,1.4,8.2c6.3,2.7,26-2.8,32.5-0.4c7.9,2.8,21.5,3.7,25.2,6.1c29.7,19.1,16.6,52.1-10.7,58.8
	c-7.9,1.9-15.9,9.7-23.8,13.3c-4.6,2.1-9.2,4.2-13.4,5.6c-6.4,2.1-8,5.4-5.6,8.7c6.3,8.4,40.9,43.3,56.5,55.8"/>
<path class="st6" d="M113.8,1.9c-9.6,3.6-34.9,21.9-42,28.8c-4.2,4.1-15.3,7.2-17.8,12.4c-3.3,6.9,5.3,17.3,6.5,24.1
	c1.1,6.5-7.3,17.6-11.5,25.3c-2.4,4.4-3.1,7.8-0.3,9.3c6.1,3.3,27.8-2.9,33.8,0.3c7.2,3.9,21.5,5.4,26.2,7.5
	c38,17.1,25.6,48.5-0.1,56.9c-8,2.6-16.4,9.3-24.4,11.7c-4.9,1.5-9.6,3.2-13.7,4.5c-6.4,2.1-8.5,5.3-6.8,8.3
	c4.5,7.9,37,46.5,51.8,58"/>
<path class="st7" d="M115.5,1.2c-9.7,2.5-38,21.9-45.4,28.3c-4.5,3.9-17.1,6.7-19.7,11.9c-3.4,6.9,6.7,17.8,8.4,24.8
	c1.4,5.9-8.4,17.4-13.8,26c-3.1,4.9-4.5,8.7-2,10.4c5.9,4,29.6-3.1,35.1,1c6.4,4.8,21.5,7.1,27.2,8.9c46.3,15,34.7,45,10.6,55.1
	c-8.1,3.4-17,8.9-25.1,10.1c-5.1,0.8-9.9,2.1-14,3.4c-6.3,2-9,5.2-8,7.9c2.6,7.5,33.1,49.7,47.2,60.2"/>
<path class="st8" d="M117.2,0.6C107.4,2,76,22.6,68.4,28.5c-4.8,3.7-18.9,6.2-21.6,11.4c-3.6,6.9,8.1,18.5,10.3,25.6
	c1.6,5.2-9.6,17.3-16.2,26.6c-3.8,5.3-5.9,9.6-3.7,11.5c5.6,4.7,31.4-3.3,36.3,1.8c5.7,5.8,21.5,8.7,28.2,10.3
	c54.4,12.9,44,41.6,21.3,53.2c-8.1,4.2-17.5,8.4-25.7,8.5c-4.9,0.1-9.7,0.9-14.4,2.4c-6.2,1.9-9.5,5.2-9.3,7.6
	c0.7,7,29.2,52.9,42.6,62.4"/>
<path class="st9" d="M118.9,0c-9.8,0.2-44.3,22-52.1,27.4c-5.1,3.5-20.6,5.6-23.5,10.9c-3.7,6.9,9.3,19.1,12.1,26.3
	c2.8,7.2-29.5,34.1-24,39.8c5.2,5.5,33.2-3.5,37.6,2.5c5,6.8,21.5,10.4,29.2,11.7c86.5,14.9,35.8,61.6,5.6,58.2
	c-13.9-1.6-24.5,4.9-25.2,8.5c-1.2,6.5,25.4,56.1,38,64.6"/>
</svg>
