<?xml version="1.0" encoding="UTF-8"?><svg id="Layer_1" xmlns="http://www.w3.org/2000/svg" width="175" height="250" viewBox="0 0 175 250"><defs><style>.cls-1{opacity:.56;}.cls-1,.cls-2,.cls-3,.cls-4,.cls-5,.cls-6,.cls-7,.cls-8,.cls-9,.cls-10{fill:none;stroke:#f0f;stroke-miterlimit:10;stroke-width:2px;}.cls-1,.cls-2,.cls-4,.cls-5,.cls-6,.cls-7,.cls-8,.cls-9,.cls-10{isolation:isolate;}.cls-2{opacity:.29;}.cls-4{opacity:.47;}.cls-5{opacity:.82;}.cls-6{opacity:.38;}.cls-7{opacity:.2;}.cls-8{opacity:.64;}.cls-9{opacity:.91;}.cls-10{opacity:.73;}</style></defs><path class="cls-7" d="m103.52,5.61c-32.66,35.97-38.26,79.61-30.39,88.31,8.71,9.63,59.15-11.05,56-2.44-10.27,28.04-28.31,72.68-64.08,68.15-11.05-1.4-19.91,27.76-32.35,32.29-23.98,8.73,53.16,30.69,80.26,55.23"/><path class="cls-2" d="m105.23,4.99c-9.4,9.18-19.5,21.34-25.09,31.28-2.87,5.1-6.53,9.94-8.36,14.95-2.57,7.04-2.37,14.3-2.88,20.27-.85,9.85-1.54,18.27.21,22.2,1.07,2.41,3.96,3.49,8.19,3.72,7.14.39,19.04-2.35,27.28-3.45,11.08-1.48,21.5-3.1,21.15.55-2.58,26.09-19.19,68.18-53.43,66.26-7.36-.41-14,11.05-21.25,19.62-3.81,4.5-7.83,8.48-12.07,9.99-6.75,2.42-5.95,5.92-.62,10.08,13.47,10.48,56.38,30.46,75.01,47"/><path class="cls-6" d="m106.93,4.36c-9.45,8.06-22.54,21.45-28.47,30.79-3.13,4.92-8.29,9.4-10.27,14.45-2.71,7.02-.77,14.9-1,21.03-.35,9.2-2.73,18.13-2.14,22.83.35,2.82,2.55,4.31,6.49,4.84,6.93.92,20.81-2.42,28.57-2.7,10.32-.36,21.45-1.39,22.16,1.95,5.2,24.34-10.15,63.86-42.74,64.4-7.47.12-14.42,10.73-21.88,18.03-4.01,3.9-8.18,7.43-12.41,8.9-6.67,2.35-6.46,5.8-1.85,9.72,11.68,9.94,52.51,33.67,70.38,49.2"/><path class="cls-4" d="m108.63,3.74c-9.5,6.94-25.6,21.57-31.85,30.31-3.39,4.73-10.06,8.86-12.13,13.93-2.85,6.99.8,15.49.87,21.79.1,8.53-3.89,17.98-4.48,23.45-.35,3.21,1.15,5.15,4.79,5.95,6.73,1.47,22.56-2.51,29.86-1.95,9.53.73,21.42.33,23.17,3.34,13.18,22.72-1.23,59.77-32.08,62.54-7.61.69-14.88,10.41-22.52,16.44-4.19,3.3-8.53,6.36-12.73,7.81-6.59,2.27-6.96,5.66-3.09,9.36,9.88,9.42,48.62,36.88,65.74,51.4"/><path class="cls-1" d="m110.34,3.12c-9.55,5.84-28.67,21.67-35.23,29.81-3.66,4.53-11.82,8.32-14.03,13.42-2.99,6.97,2.35,16.08,2.75,22.55.49,7.86-5.04,17.84-6.83,24.08-1.04,3.62-.25,6.01,3.09,7.06,6.53,2.05,24.31-2.62,31.16-1.2,8.73,1.81,21.43,2.04,24.18,4.74,21.4,21,7.7,55.83-21.41,60.67-7.75,1.29-15.37,10.07-23.16,14.86-4.4,2.7-8.88,5.31-13.07,6.72-6.51,2.21-7.47,5.56-4.32,9.01,8.09,8.91,44.75,40.09,61.11,53.59"/><path class="cls-8" d="m112.05,2.5c-9.61,4.71-31.77,21.77-38.61,29.32-3.94,4.35-13.58,7.79-15.91,12.91-3.13,6.95,3.86,16.66,4.63,23.3.83,7.19-6.18,17.69-9.17,24.7-1.72,4.02-1.65,6.89,1.39,8.17,6.34,2.67,26.05-2.75,32.46-.45,7.93,2.85,21.47,3.73,25.2,6.14,29.72,19.11,16.64,52.08-10.74,58.8-7.89,1.93-15.9,9.7-23.8,13.27-4.64,2.09-9.22,4.25-13.38,5.63-6.44,2.14-7.96,5.45-5.56,8.66,6.28,8.4,40.87,43.29,56.48,55.8"/><path class="cls-10" d="m113.75,1.88c-9.64,3.59-34.88,21.86-42,28.83-4.23,4.15-15.34,7.25-17.8,12.4-3.27,6.92,5.33,17.25,6.5,24.08,1.12,6.51-7.31,17.56-11.51,25.33-2.4,4.44-3.07,7.79-.31,9.28,6.12,3.32,27.8-2.91,33.75.3,7.16,3.85,21.47,5.4,26.21,7.53,38.02,17.1,25.64,48.49-.07,56.93-8.01,2.63-16.45,9.3-24.44,11.68-4.88,1.45-9.57,3.19-13.71,4.53-6.36,2.07-8.47,5.34-6.8,8.3,4.47,7.93,36.99,46.5,51.85,57.99"/><path class="cls-5" d="m115.46,1.25c-9.71,2.47-37.99,21.93-45.37,28.34-4.54,3.94-17.11,6.71-19.69,11.9-3.42,6.9,6.74,17.84,8.38,24.82,1.37,5.85-8.44,17.43-13.84,25.95-3.11,4.85-4.51,8.7-2.03,10.4,5.87,4.01,29.58-3.09,35.05,1.05,6.39,4.84,21.47,7.07,27.23,8.93,46.26,15.01,34.74,45.02,10.6,55.06-8.1,3.37-17,8.85-25.08,10.09-5.13.78-9.92,2.14-14.04,3.44-6.28,2-8.99,5.25-8.04,7.93,2.63,7.47,33.12,49.73,47.23,60.2"/><path class="cls-9" d="m117.16.62c-9.76,1.36-41.12,21.99-48.75,27.85-4.84,3.72-18.87,6.17-21.58,11.39-3.56,6.87,8.09,18.48,10.27,25.58,1.59,5.21-9.56,17.32-16.2,26.58-3.76,5.27-5.94,9.63-3.71,11.51,5.57,4.72,31.39-3.28,36.33,1.8,5.66,5.82,21.48,8.73,28.24,10.33,54.44,12.9,43.96,41.62,21.28,53.19-8.15,4.16-17.53,8.37-25.72,8.5-4.89.1-9.74.9-14.36,2.35-6.2,1.93-9.53,5.16-9.27,7.59.73,7,29.24,52.92,42.58,62.39"/><path class="cls-3" d="m118.87,0c-9.81.24-44.26,22.03-52.13,27.37-5.15,3.49-20.63,5.63-23.46,10.87-3.7,6.85,9.35,19.14,12.13,26.34,2.78,7.2-29.45,34.06-23.96,39.83,5.21,5.45,33.24-3.46,37.64,2.55,4.98,6.8,21.47,10.39,29.24,11.73,86.48,14.9,35.78,61.63,5.6,58.24-13.95-1.57-24.5,4.86-25.2,8.5-1.24,6.51,25.37,56.13,37.95,64.58"/></svg>