<svg id="Layer_1" data-name="Layer 1" xmlns="http://www.w3.org/2000/svg" width="397" height="899" viewBox="0 0 397 899"><defs><style>.cls-1,.cls-10,.cls-2,.cls-3,.cls-4,.cls-5,.cls-6,.cls-7,.cls-8,.cls-9{fill:none;stroke:#f0f;stroke-miterlimit:10;stroke-width:5px;}.cls-1{opacity:0.2;}.cls-2{opacity:0.29;}.cls-3{opacity:0.38;}.cls-4{opacity:0.47;}.cls-5{opacity:0.56;}.cls-6{opacity:0.64;}.cls-7{opacity:0.73;}.cls-8{opacity:0.82;}.cls-9{opacity:0.91;}</style></defs><path class="cls-1" d="M249.32,28.2c-105,127-123,281.07-97.68,311.78,28,34,190.15-39,180-8.6-33,99-91,256.6-206,240.6-35.51-4.94-64,98-104,114-77.07,30.82,170.87,108.36,258,195"/><path class="cls-2" d="M254.81,26c-30.22,32.4-62.68,75.33-80.66,110.42-9.22,18-21,35.11-26.88,52.78-8.26,24.86-7.61,50.49-9.26,71.56-2.72,34.79-4.95,64.51.67,78.39,3.45,8.51,12.73,12.33,26.34,13.15,22.95,1.39,61.19-8.28,87.68-12.17,35.63-5.22,69.12-10.94,68,1.93C312.41,434.18,259,582.77,148.94,576c-23.65-1.45-45,39-68.31,69.26-12.26,15.89-25.18,29.93-38.8,35.28-21.69,8.54-19.14,20.9-2,35.58,43.31,37,181.22,107.53,241.11,165.93"/><path class="cls-3" d="M260.29,23.79c-30.38,28.46-72.45,75.74-91.52,108.7-10.05,17.36-26.66,33.2-33,51-8.71,24.77-2.49,52.61-3.22,74.23-1.11,32.48-8.78,64-6.87,80.6,1.14,9.94,8.2,15.23,20.87,17.08,22.27,3.25,66.88-8.56,91.84-9.53,33.17-1.28,68.94-4.91,71.23,6.87C326.35,438.67,277,578.21,172.24,580.11c-24,.43-46.35,37.89-70.35,63.65C89,657.53,75.59,670,62,675.19c-21.44,8.29-20.75,20.46-5.94,34.32C93.61,744.62,224.84,828.37,282.3,883.2"/><path class="cls-4" d="M265.77,21.59c-30.54,24.51-82.28,76.15-102.38,107-10.9,16.71-32.33,31.29-39,49.18-9.16,24.69,2.57,54.7,2.81,76.92.33,30.12-12.52,63.47-14.41,82.8-1.11,11.35,3.7,18.19,15.41,21,21.63,5.2,72.52-8.86,96-6.87,30.64,2.59,68.87,1.16,74.49,11.79,42.36,80.2-3.95,211-103.13,220.79-24.45,2.43-47.82,36.74-72.4,58.05-13.47,11.66-27.42,22.47-40.91,27.58-21.19,8-22.36,20-9.92,33.06,31.75,33.26,156.3,130.2,211.33,181.45"/><path class="cls-5" d="M271.25,19.39C240.55,40,179.08,95.91,158,124.63c-11.78,16-38,29.39-45.09,47.38-9.62,24.61,7.54,56.77,8.84,79.6,1.58,27.74-16.2,63-21.94,85-3.33,12.77-.8,21.23,9.93,24.93,21,7.24,78.13-9.25,100.18-4.23,28.06,6.39,68.89,7.2,77.74,16.73,68.8,74.14,24.74,197.09-68.82,214.18-24.92,4.56-49.41,35.55-74.46,52.45-14.15,9.54-28.53,18.74-42,23.72-20.94,7.8-24,19.63-13.9,31.81,26,31.44,143.84,141.53,196.44,189.21"/><path class="cls-6" d="M276.74,17.19C245.86,33.81,174.62,94.06,152.62,120.7c-12.68,15.36-43.66,27.49-51.15,45.59-10.07,24.52,12.4,58.83,14.87,82.27C119,273.93,96.49,311,86.86,335.78c-5.53,14.21-5.31,24.34,4.47,28.85,20.38,9.42,83.73-9.71,104.34-1.58,25.49,10.06,69,13.16,81,21.67,95.54,67.48,53.49,183.87-34.52,207.58-25.36,6.83-51.1,34.26-76.51,46.84-14.9,7.37-29.65,15-43,19.87-20.69,7.55-25.59,19.23-17.88,30.56,20.2,29.66,131.38,152.85,181.55,197"/><path class="cls-7" d="M282.22,15c-31,12.67-112.11,77.17-135,101.78C133.62,131.42,97.91,142.36,90,160.56c-10.52,24.44,17.13,60.91,20.9,85,3.61,23-23.49,62-37,89.42-7.73,15.66-9.86,27.5-1,32.78,19.67,11.73,89.37-10.28,108.5,1.06,23,13.61,69,19.07,84.26,26.6,122.21,60.37,82.43,171.2-.22,201-25.75,9.29-52.87,32.85-78.56,41.24-15.68,5.12-30.76,11.27-44.06,16-20.44,7.31-27.23,18.87-21.86,29.31,14.38,28,118.92,164.18,166.67,204.72"/><path class="cls-8" d="M287.7,12.79c-31.2,8.73-122.13,77.43-145.84,100.05-14.58,13.91-55,23.69-63.29,42-11,24.35,21.68,63,26.93,87.63C109.91,263.14,78.37,304,61,334.1,51,351.23,46.5,364.82,54.48,370.81c18.86,14.15,95.1-10.92,112.67,3.7,20.53,17.08,69,24.95,87.52,31.54,148.71,53,111.67,158.93,34.09,194.38-26.05,11.9-54.65,31.26-80.62,35.63-16.48,2.76-31.88,7.54-45.12,12.16-20.18,7.06-28.89,18.53-25.83,28C145.66,702.6,243.66,851.78,289,888.75"/><path class="cls-9" d="M293.18,10.58C261.81,15.37,161,88.22,136.48,108.91c-15.56,13.14-60.67,21.78-69.36,40.2-11.43,24.27,26,65.23,33,90.32,5.1,18.39-30.72,61.16-52.09,93.84-12.08,18.61-19.1,34-11.94,40.62C54,390.57,137,362.31,152.89,380.24c18.21,20.53,69.05,30.82,90.78,36.48,175,45.56,141.3,146.94,68.39,187.77-26.19,14.67-56.36,29.55-82.67,30a152,152,0,0,0-46.17,8.31c-19.93,6.81-30.63,18.2-29.81,26.79,2.36,24.73,94,186.84,136.89,220.25"/><path class="cls-10" d="M298.67,8.38C267.13,9.23,156.4,86.16,131.09,105c-16.55,12.31-66.33,19.87-75.42,38.39-11.88,24.19,30.05,67.58,39,93S0,356.64,17.64,377c16.74,19.25,106.84-12.23,121,9,16,24,69,36.67,94,41.4,278,52.6,115,217.6,18,205.6-44.84-5.55-78.77,17.15-81,30-4,23,81.54,198.17,122,228"/></svg>